<svg width="1280" height="1723" viewBox="0 0 1280 1723" fill="none" xmlns="http://www.w3.org/2000/svg">
<g clip-path="url(#clip0_1253_67)">
<rect width="1280" height="1723" fill="#FBFBFB"/>
<rect x="167.345" y="1257.85" width="266.31" height="131.81" stroke="#6B6B6B" stroke-width="2.69" stroke-dasharray="13.45 13.45"/>
<rect x="167.345" y="1126.03" width="266.31" height="131.81" stroke="#6B6B6B" stroke-width="2.69" stroke-dasharray="13.45 13.45"/>
<rect x="168.018" y="989.518" width="264.965" height="399.465" stroke="#2D2B2B" stroke-width="4.035"/>
<path d="M167.345 1293.49L198.952 1257.84" stroke="#2D2B2B" stroke-width="2.69"/>
<path d="M167.345 1329.8L229.887 1257.84" stroke="#2D2B2B" stroke-width="2.69"/>
<path d="M382.545 1390.33L434.327 1331.82" stroke="#2D2B2B" stroke-width="2.69"/>
<path d="M167.345 1366.12L262.167 1257.17" stroke="#2D2B2B" stroke-width="2.69"/>
<path d="M348.92 1389.66L432.982 1292.14" stroke="#2D2B2B" stroke-width="2.69"/>
<path d="M176.76 1389.65L292.43 1257.84" stroke="#2D2B2B" stroke-width="2.69"/>
<path d="M207.695 1389.65L323.365 1257.84" stroke="#2D2B2B" stroke-width="2.69"/>
<path d="M242.665 1389.65L358.335 1257.84" stroke="#2D2B2B" stroke-width="2.69"/>
<path d="M277.635 1389.65L393.305 1257.84" stroke="#2D2B2B" stroke-width="2.69"/>
<path d="M313.95 1389.65L429.62 1257.84" stroke="#2D2B2B" stroke-width="2.69"/>
<path d="M290.762 1189.76V1193.5H272.104V1189.76H279.593V1170.45H272.621V1166.71H284.177V1189.76H290.762ZM313.229 1166.71H318.136L287.276 1211.9H282.369L313.229 1166.71ZM321.557 1196.21C324.441 1196.43 326.636 1197.25 328.142 1198.67C329.692 1200.04 330.467 1201.81 330.467 1203.96C330.467 1206.33 329.455 1208.31 327.432 1209.9C325.409 1211.45 322.547 1212.22 318.846 1212.22C316.522 1212.22 314.327 1211.92 312.261 1211.32C310.238 1210.72 308.688 1209.92 307.612 1208.93L309.42 1205.51C310.496 1206.37 311.852 1207.06 313.487 1207.57C315.166 1208.09 316.952 1208.35 318.846 1208.35C321.17 1208.35 322.935 1207.96 324.14 1207.19C325.345 1206.41 325.947 1205.34 325.947 1203.96C325.947 1202.58 325.366 1201.53 324.204 1200.8C323.085 1200.02 321.385 1199.63 319.104 1199.63H316.07V1196.6L323.3 1188.85H308.452V1185.11H329.175V1188.01L321.557 1196.21Z" fill="black"/>
<circle cx="964.92" cy="342.754" r="134.17" stroke="#2D2B2B" stroke-width="3.50008"/>
<path d="M963.754 173L965.467 500.841" stroke="#6B6B6B" stroke-width="2.33338"/>
<path d="M801 344.495L1128.84 343.337" stroke="#6B6B6B" stroke-width="2.33338"/>
<rect x="958.503" y="380.671" width="11.6669" height="5.83346" fill="#FFFFF7"/>
<rect x="1008.67" y="335.17" width="11.6669" height="5.83346" transform="rotate(90 1008.67 335.17)" fill="#FFFFF7"/>
<rect x="925.836" y="337.504" width="11.6669" height="5.83346" transform="rotate(90 925.836 337.504)" fill="#FFFFF7"/>
<rect x="1028.5" y="337.504" width="11.6669" height="5.83346" transform="rotate(90 1028.5 337.504)" fill="#FFFFF7"/>
<rect x="906.002" y="338.67" width="11.6669" height="5.83346" transform="rotate(90 906.002 338.67)" fill="#FFFFF7"/>
<rect x="958.503" y="301.336" width="11.6669" height="5.83346" fill="#FFFFF7"/>
<rect x="958.503" y="400.505" width="11.6669" height="5.83346" fill="#FFFFF7"/>
<rect x="958.503" y="282.669" width="11.6669" height="5.83346" fill="#FFFFF7"/>
<path d="M1099.09 344.504L1098.47 552.175" stroke="#2D2B2B" stroke-width="2.33338" stroke-dasharray="9.33 9.33"/>
<path d="M830.167 344.504V552.175" stroke="#2D2B2B" stroke-width="2.33338" stroke-dasharray="9.33 9.33"/>
<path d="M830.17 552.138L862.88 557.95L860.367 552.152L862.886 546.357L830.17 552.138Z" fill="#7B7B7B"/>
<path d="M1100.89 552.138L1068.18 557.95L1070.69 552.152L1068.17 546.357L1100.89 552.138Z" fill="#7B7B7B"/>
<path d="M911.182 501.88L904.276 536.507H899.982L900.589 533.474C899.469 534.531 898.162 535.356 896.669 535.947C895.206 536.507 893.604 536.787 891.862 536.787C889.746 536.787 887.864 536.367 886.215 535.527C884.566 534.656 883.275 533.411 882.342 531.794C881.408 530.176 880.942 528.278 880.942 526.1C880.942 523.3 881.548 520.796 882.762 518.587C883.975 516.378 885.64 514.651 887.755 513.406C889.902 512.162 892.298 511.54 894.942 511.54C897.058 511.54 898.878 511.929 900.402 512.706C901.958 513.453 903.124 514.558 903.902 516.02L906.702 501.88H911.182ZM892.842 532.867C894.678 532.867 896.326 532.431 897.789 531.56C899.282 530.658 900.433 529.413 901.242 527.827C902.082 526.24 902.502 524.436 902.502 522.413C902.502 520.204 901.864 518.493 900.589 517.28C899.313 516.067 897.493 515.46 895.129 515.46C893.293 515.46 891.644 515.911 890.182 516.813C888.72 517.684 887.569 518.913 886.729 520.5C885.888 522.087 885.468 523.891 885.468 525.913C885.468 528.091 886.106 529.802 887.382 531.047C888.689 532.26 890.509 532.867 892.842 532.867ZM925.353 538.56L924.886 541.174H911.306L911.819 538.56H917.232L920.079 524.42H915.086L915.599 521.807H923.906L920.546 538.56H925.353Z" fill="#2D2B2B"/>
<path d="M859 552.5H1074" stroke="#7B7B7B" stroke-width="2"/>
</g>
<defs>
<clipPath id="clip0_1253_67">
<rect width="1280" height="1723" fill="white"/>
</clipPath>
</defs>
</svg>
