<svg width="1280" height="695" viewBox="0 0 1280 695" fill="none" xmlns="http://www.w3.org/2000/svg">
<rect width="1280" height="695" fill="#FBFBFB"/>
<path d="M40.1299 39L40.1463 657.733" stroke="#2D2B2B" stroke-width="3"/>
<path d="M1240.19 39.6484L1240.21 657.233" stroke="#2D2B2B" stroke-width="3"/>
<path d="M43.022 171.811H1236.02" stroke="#898989" stroke-width="2"/>
<path d="M43.022 334.811H1236.02" stroke="#898989" stroke-width="2"/>
<path d="M43.022 497.811H1236.02" stroke="#898989" stroke-width="2"/>
<path d="M1239.06 171.779L1211.03 176.76L1213.18 171.791L1211.02 166.824L1239.06 171.779Z" fill="#898989"/>
<path d="M1240.06 334.779L1212.03 339.76L1214.18 334.791L1212.02 329.824L1240.06 334.779Z" fill="#898989"/>
<path d="M1240.06 497.779L1212.03 502.76L1214.18 497.791L1212.02 492.824L1240.06 497.779Z" fill="#898989"/>
<path d="M41.0244 171.779L69.0609 176.76L66.9065 171.791L69.0657 166.824L41.0244 171.779Z" fill="#898989"/>
<path d="M41.0244 334.779L69.0609 339.76L66.9065 334.791L69.0657 329.824L41.0244 334.779Z" fill="#898989"/>
<path d="M41.0244 497.779L69.0609 502.76L66.9065 497.791L69.0657 492.824L41.0244 497.779Z" fill="#898989"/>
</svg>
