<svg width="1280" height="800" viewBox="0 0 1280 800" fill="none" xmlns="http://www.w3.org/2000/svg">
<g clip-path="url(#clip0_682_1290)">
<rect width="1280" height="800" fill="#FBFBFB"/>
<path d="M41 166.877V98.5H1240V171" stroke="#898989" stroke-width="2"/>
<path d="M105 98V132" stroke="#898989" stroke-width="3"/>
<path d="M224 98V132" stroke="#898989" stroke-width="3"/>
<path d="M343 98V132" stroke="#898989" stroke-width="3"/>
<path d="M462 98V132" stroke="#898989" stroke-width="3"/>
<path d="M581 98V132" stroke="#898989" stroke-width="3"/>
<path d="M700 98V132" stroke="#898989" stroke-width="3"/>
<path d="M819 98V132" stroke="#898989" stroke-width="3"/>
<path d="M938 98V132" stroke="#898989" stroke-width="3"/>
<path d="M1057 98V132" stroke="#898989" stroke-width="3"/>
<path d="M1176 98V132" stroke="#898989" stroke-width="3"/>
<path d="M164 98V122" stroke="#898989" stroke-width="2"/>
<path d="M283 98V122" stroke="#898989" stroke-width="2"/>
<path d="M402 98V122" stroke="#898989" stroke-width="2"/>
<path d="M521 98V122" stroke="#898989" stroke-width="2"/>
<path d="M640 98V122" stroke="#898989" stroke-width="2"/>
<path d="M759 98V122" stroke="#898989" stroke-width="2"/>
<path d="M878 98V122" stroke="#898989" stroke-width="2"/>
<path d="M997 98V122" stroke="#898989" stroke-width="2"/>
<path d="M1116 98V122" stroke="#898989" stroke-width="2"/>
<path d="M41 439.377V371H1240V443.5" stroke="#898989" stroke-width="2"/>
<path d="M107 371V405" stroke="#898989" stroke-width="3"/>
<path d="M226 371V405" stroke="#898989" stroke-width="3"/>
<path d="M345 371V405" stroke="#898989" stroke-width="3"/>
<path d="M464 371V405" stroke="#898989" stroke-width="3"/>
<path d="M583 371V405" stroke="#898989" stroke-width="3"/>
<path d="M702 371V405" stroke="#898989" stroke-width="3"/>
<path d="M821 371V405" stroke="#898989" stroke-width="3"/>
<path d="M940 371V405" stroke="#898989" stroke-width="3"/>
<path d="M1059 371V405" stroke="#898989" stroke-width="3"/>
<path d="M1178 371V405" stroke="#898989" stroke-width="3"/>
<path d="M170 371V395" stroke="#898989" stroke-width="2"/>
<path d="M289 371V395" stroke="#898989" stroke-width="2"/>
<path d="M408 371V395" stroke="#898989" stroke-width="2"/>
<path d="M527 371V395" stroke="#898989" stroke-width="2"/>
<path d="M646 371V395" stroke="#898989" stroke-width="2"/>
<path d="M765 371V395" stroke="#898989" stroke-width="2"/>
<path d="M884 371V395" stroke="#898989" stroke-width="2"/>
<path d="M1003 371V395" stroke="#898989" stroke-width="2"/>
<path d="M1122 371V395" stroke="#898989" stroke-width="2"/>
</g>
<defs>
<clipPath id="clip0_682_1290">
<rect width="1280" height="800" fill="white"/>
</clipPath>
</defs>
</svg>
