<svg width="1280" height="800" viewBox="0 0 1280 800" fill="none" xmlns="http://www.w3.org/2000/svg">
<g clip-path="url(#clip0_682_1245)">
<rect width="1280" height="800" fill="#FBFBFB"/>
<path d="M187 529L341.5 344" stroke="#6B6B6B" stroke-width="2"/>
<path d="M340 345.5L680 345.5" stroke="#898989" stroke-width="2"/>
<circle cx="191" cy="515" r="227.5" stroke="#2D2B2B" stroke-width="3"/>
<path d="M41 101V629H780H1235.5" stroke="#898989" stroke-width="2" stroke-dasharray="10 10"/>
<circle cx="186" cy="531" r="6" fill="#2D2B2B"/>
<path d="M143.672 546.384C140.376 546.384 137.544 545.792 135.176 544.608C132.808 543.424 131 541.776 129.752 539.664C128.504 537.52 127.88 535.04 127.88 532.224C127.88 528.48 128.728 525.072 130.424 522C132.12 518.928 134.504 516.496 137.576 514.704C140.68 512.912 144.248 512.016 148.28 512.016C151.576 512.016 154.408 512.608 156.776 513.792C159.176 514.976 161 516.64 162.248 518.784C163.496 520.896 164.12 523.36 164.12 526.176C164.12 529.92 163.272 533.328 161.576 536.4C159.88 539.472 157.48 541.904 154.376 543.696C151.272 545.488 147.704 546.384 143.672 546.384ZM144.104 542.112C147.112 542.112 149.768 541.408 152.072 540C154.376 538.592 156.152 536.704 157.4 534.336C158.648 531.936 159.272 529.312 159.272 526.464C159.272 523.36 158.28 520.896 156.296 519.072C154.344 517.216 151.544 516.288 147.896 516.288C144.888 516.288 142.232 516.992 139.928 518.4C137.624 519.808 135.832 521.712 134.552 524.112C133.304 526.512 132.68 529.12 132.68 531.936C132.68 535.04 133.672 537.52 135.656 539.376C137.64 541.2 140.456 542.112 144.104 542.112Z" fill="#2D2B2B"/>
<path d="M421 630L419 107" stroke="#898989" stroke-width="2" stroke-dasharray="10 10"/>
<path d="M40.9994 250.499L419 250" stroke="#6B6B6B" stroke-width="2"/>
<path d="M421.041 249.968L393.005 254.95L395.159 249.981L393 245.014L421.041 249.968Z" fill="#7B7B7B"/>
<path d="M421.041 249.968L393.005 254.95L395.159 249.981L393 245.014L421.041 249.968Z" fill="#7B7B7B"/>
<rect x="-8" y="745" width="115" height="404" transform="rotate(-90 -8 745)" fill="#FBFBFB"/>
<rect x="-4" y="234" width="44" height="368" fill="#FBFBFB"/>
</g>
<defs>
<clipPath id="clip0_682_1245">
<rect width="1280" height="800" fill="white"/>
</clipPath>
</defs>
</svg>
