<svg width="1280" height="897" viewBox="0 0 1280 897" fill="none" xmlns="http://www.w3.org/2000/svg">
<g clip-path="url(#clip0_682_1211)">
<rect width="1280" height="897" fill="#FBFBFB"/>
<path d="M46.968 704.722V307.174" stroke="#898989" stroke-width="2"/>
<path d="M50.6387 320.041L47.3867 318.544L46.9678 318.352L46.5498 318.544L43.2969 320.041L46.9678 298.068L50.6387 320.041Z" fill="#898989" stroke="#898989" stroke-width="2"/>
<path d="M50.6387 700.959L47.3867 702.456L46.9678 702.648L46.5498 702.456L43.2969 700.959L46.9678 722.932L50.6387 700.959Z" fill="#898989" stroke="#898989" stroke-width="2"/>
<path d="M623.968 704.722V307.174" stroke="#898989" stroke-width="2"/>
<path d="M627.639 320.041L624.387 318.544L623.968 318.352L623.55 318.544L620.297 320.041L623.968 298.068L627.639 320.041Z" fill="#898989" stroke="#898989" stroke-width="2"/>
<path d="M627.639 700.959L624.387 702.456L623.968 702.648L623.55 702.456L620.297 700.959L623.968 722.932L627.639 700.959Z" fill="#898989" stroke="#898989" stroke-width="2"/>
</g>
<defs>
<clipPath id="clip0_682_1211">
<rect width="1280" height="897" fill="white"/>
</clipPath>
</defs>
</svg>
