<svg width="1280" height="1360" viewBox="0 0 1280 1360" fill="none" xmlns="http://www.w3.org/2000/svg">
<rect width="1280" height="1360" fill="#FBFBFB"/>
<path d="M941.203 226.738C941.991 229.915 942.53 233.187 942.8 236.533L941.804 236.613C941.934 238.225 942 239.855 942 241.5C942 243.145 941.934 244.775 941.804 246.387L942.8 246.466C942.53 249.812 941.991 253.084 941.203 256.261L940.233 256.021C939.443 259.209 938.399 262.301 937.121 265.273L938.038 265.667C936.725 268.723 935.17 271.655 933.397 274.441L932.555 273.906C930.803 276.658 928.835 279.266 926.674 281.706L927.422 282.368C925.229 284.844 922.841 287.15 920.28 289.263L919.645 288.491C917.139 290.558 914.465 292.438 911.647 294.108L912.157 294.969C909.325 296.647 906.349 298.116 903.252 299.355L902.882 298.428C899.883 299.628 896.767 300.609 893.557 301.351L893.781 302.323C890.595 303.059 887.317 303.562 883.967 303.813L883.894 302.817C882.279 302.938 880.647 303 879 303C877.353 303 875.721 302.938 874.106 302.817L874.032 303.813C870.682 303.562 867.405 303.059 864.219 302.323L864.443 301.351C861.233 300.609 858.117 299.628 855.118 298.428L854.747 299.355C851.65 298.116 848.674 296.647 845.842 294.969H845.843L846.353 294.108C843.535 292.438 840.861 290.558 838.355 288.491L837.719 289.263C835.158 287.15 832.77 284.844 830.577 282.368L831.326 281.706C829.165 279.266 827.197 276.658 825.445 273.906L824.602 274.441C822.829 271.655 821.274 268.723 819.961 265.667L820.879 265.273C819.601 262.301 818.557 259.209 817.767 256.021L816.796 256.261C816.008 253.084 815.469 249.812 815.199 246.466L816.196 246.387C816.066 244.775 816 243.145 816 241.5C816 239.855 816.066 238.225 816.196 236.613L815.199 236.533C815.45 233.414 815.936 230.359 816.639 227.385L816.796 226.738L817.767 226.979C818.557 223.791 819.601 220.699 820.879 217.727L819.961 217.332C821.274 214.276 822.829 211.344 824.602 208.558L825.445 209.094C827.197 206.342 829.165 203.734 831.326 201.294L830.577 200.631C832.77 198.155 835.158 195.849 837.719 193.736L837.72 193.737L838.355 194.509C840.861 192.442 843.535 190.562 846.353 188.892L845.843 188.031L845.842 188.03C848.674 186.352 851.65 184.883 854.747 183.644L855.118 184.572C858.117 183.372 861.233 182.391 864.443 181.649L864.218 180.676C867.404 179.94 870.682 179.437 874.032 179.186L874.106 180.183C875.721 180.062 877.353 180 879 180C880.647 180 882.279 180.062 883.894 180.183L883.967 179.186C887.317 179.437 890.594 179.94 893.78 180.676L893.557 181.649C896.767 182.391 899.883 183.372 902.882 184.572L903.252 183.644C906.349 184.883 909.325 186.352 912.157 188.03V188.031L911.647 188.892C914.465 190.562 917.139 192.442 919.645 194.509L920.28 193.737V193.736C922.841 195.849 925.229 198.155 927.422 200.631L926.674 201.294C928.835 203.734 930.803 206.342 932.555 209.094L933.397 208.558C935.17 211.344 936.725 214.276 938.038 217.332H938.039L937.121 217.727C938.399 220.699 939.443 223.791 940.233 226.979L941.203 226.738Z" stroke="#898989" stroke-width="2" stroke-dasharray="10 10"/>
<path d="M340 927.344L346.993 878L489 939.68L419.61 1041.17L382.495 1155L359.365 1127.52L373.888 983.978L340 927.344Z" stroke="#2D2B2B" stroke-width="4"/>
<path d="M272.293 805L316.121 750.014M316.121 750.014L412.5 712L330 695.5M316.121 750.014L330 695.5M330 695.5L234 682" stroke="#898989" stroke-width="2" stroke-dasharray="10 10"/>
<path d="M111.5 650L147 624" stroke="#898989" stroke-width="2" stroke-dasharray="10 10"/>
<path d="M235 682L298 618.103M235 682L147 624.276M235 682L197.869 725.302L271.227 805" stroke="#898989" stroke-width="2" stroke-dasharray="10 10"/>
<path d="M341 928L487 940.938L374.816 983.688L421.5 1037" stroke="#898989" stroke-width="2" stroke-dasharray="10 10"/>
<path d="M680.5 1029L711.123 1024.59L660.299 990.403L745.5 903M745.5 903L550 858.157L710.042 801L745.5 903Z" stroke="#898989" stroke-width="2" stroke-dasharray="10 10"/>
<path d="M658 733.121L677.337 704.65L707.416 721.956L844.921 726.981M844.921 726.981L841.161 823H1014.12L992.631 692.272L1092 593V668.922L844.921 726.981Z" stroke="#898989" stroke-width="2" stroke-dasharray="10 10"/>
<path d="M845 728L859.478 617L993 693.242" stroke="#898989" stroke-width="2" stroke-dasharray="10 10"/>
<path d="M1010 1038.25L1105 975V1064" stroke="#898989" stroke-width="2" stroke-dasharray="10 10"/>
<path d="M461.691 646L519.599 518L425.766 574.702L407 526.982L570 546.07" stroke="#898989" stroke-width="2" stroke-dasharray="10 10"/>
<path d="M641.241 695.202L580 772.976L657.357 733.81L686.904 763.464L707.854 722.06L733.64 798.155L769.633 857.464L804.014 834.524L769.633 814.381L778.765 791.44L840.544 822.774L872.239 886L1015.13 822.774L1034.47 763.464L1083.36 733.81L1091.42 669.464L1237 628.06L959.803 557L860.42 614.071L733.64 644.286L677.771 703.595L641.241 695.202Z" stroke="#2D2B2B" stroke-width="4"/>
<path d="M1106.23 974.703L985 951L1001.56 997.842L1010.1 1038.48L1106.23 1065L1134 1015.34L1106.23 974.703Z" stroke="#2D2B2B" stroke-width="4"/>
<path d="M569 545.165L460.93 645L425.444 575.452L362 559.187L406.088 525.535L522.761 516L569 545.165Z" stroke="#2D2B2B" stroke-width="4"/>
<path d="M745 603.5L693 652.5L720.5 492L802 598L745 603.5Z" stroke="#2D2B2B" stroke-width="4"/>
<path d="M78.3121 603.734L44 693.275L111.016 651.303L197.332 726.294L232.717 824.229L329.756 869L271.854 805.761H334.045L415 712.303L394.627 629.477L342.087 603.734L372.11 655.78L329.756 693.275L297.052 618.844L329.756 564L221.458 607.651L145.864 622.761L78.3121 603.734Z" stroke="#2D2B2B" stroke-width="4"/>
<path d="M659.748 993.639L705.095 1075L711.033 1025.62L758 865.706L711.033 798.933L634.375 772L548 859.533L580.391 900.494L627.897 878.05L659.748 914.522V993.639Z" stroke="#2D2B2B" stroke-width="4"/>
<path d="M744.5 603L721 494" stroke="#898989" stroke-width="2" stroke-dasharray="10 10"/>
</svg>
