<svg width="1280" height="800" viewBox="0 0 1280 800" fill="none" xmlns="http://www.w3.org/2000/svg">
<g clip-path="url(#clip0_682_1290)">
<rect width="1280" height="800" fill="#FBFBFB"/>
<path d="M41 166.877V98.5H1240V171" stroke="#898989" stroke-width="2"/>
<path d="M105 98V132" stroke="#898989" stroke-width="3"/>
<path d="M224 98V132" stroke="#898989" stroke-width="3"/>
<path d="M343 98V132" stroke="#898989" stroke-width="3"/>
<path d="M462 98V132" stroke="#898989" stroke-width="3"/>
<path d="M581 98V132" stroke="#898989" stroke-width="3"/>
<path d="M700 98V132" stroke="#898989" stroke-width="3"/>
<path d="M819 98V132" stroke="#898989" stroke-width="3"/>
<path d="M938 98V132" stroke="#898989" stroke-width="3"/>
<path d="M1057 98V132" stroke="#898989" stroke-width="3"/>
<path d="M1176 98V132" stroke="#898989" stroke-width="3"/>
<path d="M164 98V122" stroke="#898989" stroke-width="2"/>
<path d="M283 98V122" stroke="#898989" stroke-width="2"/>
<path d="M402 98V122" stroke="#898989" stroke-width="2"/>
<path d="M521 98V122" stroke="#898989" stroke-width="2"/>
<path d="M640 98V122" stroke="#898989" stroke-width="2"/>
<path d="M759 98V122" stroke="#898989" stroke-width="2"/>
<path d="M878 98V122" stroke="#898989" stroke-width="2"/>
<path d="M997 98V122" stroke="#898989" stroke-width="2"/>
<path d="M1116 98V122" stroke="#898989" stroke-width="2"/>
<path d="M41 439.377V371H1240V443.5" stroke="#898989" stroke-width="2"/>
<path d="M107 371V405" stroke="#898989" stroke-width="3"/>
<path d="M226 371V405" stroke="#898989" stroke-width="3"/>
<path d="M345 371V405" stroke="#898989" stroke-width="3"/>
<path d="M464 371V405" stroke="#898989" stroke-width="3"/>
<path d="M583 371V405" stroke="#898989" stroke-width="3"/>
<path d="M702 371V405" stroke="#898989" stroke-width="3"/>
<path d="M821 371V405" stroke="#898989" stroke-width="3"/>
<path d="M940 371V405" stroke="#898989" stroke-width="3"/>
<path d="M1059 371V405" stroke="#898989" stroke-width="3"/>
<path d="M1178 371V405" stroke="#898989" stroke-width="3"/>
<path d="M170 371V395" stroke="#898989" stroke-width="2"/>
<path d="M289 371V395" stroke="#898989" stroke-width="2"/>
<path d="M408 371V395" stroke="#898989" stroke-width="2"/>
<path d="M527 371V395" stroke="#898989" stroke-width="2"/>
<path d="M646 371V395" stroke="#898989" stroke-width="2"/>
<path d="M765 371V395" stroke="#898989" stroke-width="2"/>
<path d="M884 371V395" stroke="#898989" stroke-width="2"/>
<path d="M1003 371V395" stroke="#898989" stroke-width="2"/>
<path d="M1122 371V395" stroke="#898989" stroke-width="2"/>
<path d="M1141.62 60.6V83H1139L1125.56 66.296V83H1122.36V60.6H1124.98L1138.42 77.304V60.6H1141.62ZM1155.14 83.192C1153.46 83.192 1151.94 82.8187 1150.6 82.072C1149.26 81.3253 1148.2 80.3013 1147.43 79C1146.69 77.6773 1146.31 76.184 1146.31 74.52C1146.31 72.856 1146.69 71.3733 1147.43 70.072C1148.2 68.7493 1149.26 67.7253 1150.6 67C1151.94 66.2533 1153.46 65.88 1155.14 65.88C1156.83 65.88 1158.33 66.2533 1159.66 67C1161 67.7253 1162.05 68.7493 1162.79 70.072C1163.56 71.3733 1163.94 72.856 1163.94 74.52C1163.94 76.184 1163.56 77.6773 1162.79 79C1162.05 80.3013 1161 81.3253 1159.66 82.072C1158.33 82.8187 1156.83 83.192 1155.14 83.192ZM1155.14 80.504C1156.23 80.504 1157.2 80.2587 1158.06 79.768C1158.93 79.256 1159.61 78.552 1160.1 77.656C1160.6 76.7387 1160.84 75.6933 1160.84 74.52C1160.84 73.3467 1160.6 72.312 1160.1 71.416C1159.61 70.4987 1158.93 69.7947 1158.06 69.304C1157.2 68.8133 1156.23 68.568 1155.14 68.568C1154.06 68.568 1153.08 68.8133 1152.2 69.304C1151.35 69.7947 1150.66 70.4987 1150.15 71.416C1149.66 72.312 1149.42 73.3467 1149.42 74.52C1149.42 75.6933 1149.66 76.7387 1150.15 77.656C1150.66 78.552 1151.35 79.256 1152.2 79.768C1153.08 80.2587 1154.06 80.504 1155.14 80.504ZM1171.14 68.888C1171.67 67.9067 1172.46 67.16 1173.51 66.648C1174.55 66.136 1175.82 65.88 1177.31 65.88V68.856C1177.14 68.8347 1176.91 68.824 1176.61 68.824C1174.95 68.824 1173.63 69.3253 1172.67 70.328C1171.73 71.3093 1171.27 72.7173 1171.27 74.552V83H1168.19V66.04H1171.14V68.888ZM1202.32 65.88C1204.45 65.88 1206.13 66.4987 1207.37 67.736C1208.63 68.9733 1209.26 70.808 1209.26 73.24V83H1206.19V73.592C1206.19 71.9493 1205.8 70.712 1205.04 69.88C1204.29 69.048 1203.21 68.632 1201.8 68.632C1200.25 68.632 1199.01 69.1227 1198.09 70.104C1197.17 71.064 1196.72 72.4507 1196.72 74.264V83H1193.64V73.592C1193.64 71.9493 1193.26 70.712 1192.49 69.88C1191.74 69.048 1190.67 68.632 1189.26 68.632C1187.7 68.632 1186.46 69.1227 1185.55 70.104C1184.63 71.064 1184.17 72.4507 1184.17 74.264V83H1181.1V66.04H1184.04V68.568C1184.66 67.6933 1185.47 67.032 1186.48 66.584C1187.48 66.1147 1188.62 65.88 1189.9 65.88C1191.22 65.88 1192.4 66.1467 1193.42 66.68C1194.44 67.2133 1195.23 67.992 1195.79 69.016C1196.43 68.0347 1197.31 67.2667 1198.44 66.712C1199.6 66.1573 1200.89 65.88 1202.32 65.88ZM1221.09 65.88C1223.43 65.88 1225.23 66.456 1226.46 67.608C1227.72 68.76 1228.35 70.4773 1228.35 72.76V83H1225.44V80.76C1224.93 81.5493 1224.19 82.1573 1223.23 82.584C1222.29 82.9893 1221.17 83.192 1219.87 83.192C1217.97 83.192 1216.45 82.7333 1215.3 81.816C1214.17 80.8987 1213.6 79.6933 1213.6 78.2C1213.6 76.7067 1214.14 75.512 1215.23 74.616C1216.32 73.6987 1218.05 73.24 1220.42 73.24H1225.28V72.632C1225.28 71.3093 1224.9 70.296 1224.13 69.592C1223.36 68.888 1222.23 68.536 1220.74 68.536C1219.73 68.536 1218.75 68.7067 1217.79 69.048C1216.83 69.368 1216.02 69.8053 1215.36 70.36L1214.08 68.056C1214.95 67.352 1216 66.8187 1217.22 66.456C1218.43 66.072 1219.72 65.88 1221.09 65.88ZM1220.38 80.824C1221.56 80.824 1222.57 80.568 1223.42 80.056C1224.28 79.5227 1224.9 78.776 1225.28 77.816V75.448H1220.54C1217.94 75.448 1216.64 76.3227 1216.64 78.072C1216.64 78.9253 1216.97 79.5973 1217.63 80.088C1218.29 80.5787 1219.21 80.824 1220.38 80.824ZM1234.04 59.256H1237.11V83H1234.04V59.256Z" fill="black"/>
<path d="M1166.14 332.6H1169.34L1164.86 355H1161.66L1166.14 332.6ZM1175.7 349.592C1175.63 349.912 1175.6 350.211 1175.6 350.488C1175.6 351.171 1175.78 351.693 1176.15 352.056C1176.53 352.419 1177.1 352.6 1177.84 352.6C1178.74 352.6 1179.55 352.333 1180.27 351.8L1180.91 354.136C1179.89 354.84 1178.58 355.192 1176.98 355.192C1175.63 355.192 1174.55 354.819 1173.71 354.072C1172.9 353.304 1172.5 352.259 1172.5 350.936C1172.5 350.488 1172.54 350.061 1172.63 349.656L1174.45 340.568H1171.57L1172.05 338.04H1174.96L1175.7 334.328H1178.77L1178.03 338.04H1182.9L1182.39 340.568H1177.52L1175.7 349.592ZM1203.17 338.04L1199.81 355H1196.87L1197.28 352.92C1196.51 353.645 1195.62 354.211 1194.59 354.616C1193.59 355 1192.49 355.192 1191.3 355.192C1189.85 355.192 1188.56 354.904 1187.43 354.328C1186.3 353.731 1185.41 352.877 1184.77 351.768C1184.13 350.659 1183.81 349.357 1183.81 347.864C1183.81 345.944 1184.23 344.227 1185.06 342.712C1185.89 341.197 1187.03 340.013 1188.48 339.16C1189.95 338.307 1191.6 337.88 1193.41 337.88C1194.86 337.88 1196.1 338.136 1197.12 338.648C1198.17 339.16 1198.97 339.917 1199.52 340.92L1200.1 338.04H1203.17ZM1191.97 352.504C1193.23 352.504 1194.36 352.205 1195.36 351.608C1196.39 350.989 1197.18 350.136 1197.73 349.048C1198.31 347.96 1198.59 346.723 1198.59 345.336C1198.59 343.821 1198.16 342.648 1197.28 341.816C1196.41 340.984 1195.16 340.568 1193.54 340.568C1192.28 340.568 1191.15 340.877 1190.15 341.496C1189.14 342.093 1188.35 342.936 1187.78 344.024C1187.2 345.112 1186.91 346.349 1186.91 347.736C1186.91 349.229 1187.35 350.403 1188.23 351.256C1189.12 352.088 1190.37 352.504 1191.97 352.504ZM1210.39 331.256H1213.46L1208.73 355H1205.65L1210.39 331.256ZM1217.95 338.04H1221.02L1217.66 355H1214.59L1217.95 338.04ZM1220.38 334.776C1219.83 334.776 1219.37 334.595 1219.01 334.232C1218.65 333.869 1218.46 333.432 1218.46 332.92C1218.46 332.323 1218.67 331.821 1219.07 331.416C1219.5 330.989 1220.03 330.776 1220.67 330.776C1221.23 330.776 1221.69 330.957 1222.05 331.32C1222.43 331.661 1222.62 332.077 1222.62 332.568C1222.62 333.229 1222.41 333.763 1221.98 334.168C1221.58 334.573 1221.05 334.776 1220.38 334.776ZM1231.56 355.192C1229.94 355.192 1228.52 354.893 1227.31 354.296C1226.09 353.677 1225.15 352.824 1224.49 351.736C1223.83 350.627 1223.5 349.336 1223.5 347.864C1223.5 345.965 1223.92 344.259 1224.78 342.744C1225.63 341.229 1226.81 340.045 1228.33 339.192C1229.84 338.317 1231.56 337.88 1233.48 337.88C1236.83 337.88 1239.16 339.107 1240.46 341.56L1237.87 343C1236.97 341.379 1235.43 340.568 1233.26 340.568C1232 340.568 1230.86 340.877 1229.83 341.496C1228.83 342.093 1228.04 342.936 1227.47 344.024C1226.89 345.112 1226.6 346.349 1226.6 347.736C1226.6 349.229 1227.04 350.403 1227.91 351.256C1228.81 352.088 1230.07 352.504 1231.69 352.504C1232.71 352.504 1233.66 352.301 1234.54 351.896C1235.43 351.491 1236.17 350.893 1236.75 350.104L1238.99 351.704C1238.2 352.792 1237.14 353.645 1235.82 354.264C1234.49 354.883 1233.08 355.192 1231.56 355.192Z" fill="black"/>
</g>
<defs>
<clipPath id="clip0_682_1290">
<rect width="1280" height="800" fill="white"/>
</clipPath>
</defs>
</svg>
