<svg width="1280" height="2279" viewBox="0 0 1280 2279" fill="none" xmlns="http://www.w3.org/2000/svg">
<g clip-path="url(#clip0_682_1366)">
<rect width="1280" height="2279" fill="#FBFBFB"/>
<path d="M43.25 26.9985V420.001" stroke="#898989" stroke-width="2"/>
<path d="M1238 40V420" stroke="#898989" stroke-width="2"/>
<path d="M41.5 3.49996L161 3.50005" stroke="#2D2B2B" stroke-width="2"/>
<path d="M1128 4H1241.5" stroke="#2D2B2B" stroke-width="2"/>
<path d="M42.5 3L50 43L42.5 39.9231L35 43L42.5 3Z" fill="#898989"/>
<path d="M1237.5 5L1245 45L1237.5 41.9231L1230 45L1237.5 5Z" fill="#898989"/>
<path d="M174 269.5L214 262L210.923 269.5L214 277L174 269.5Z" fill="#898989"/>
<path d="M1114 269.5L1074 262L1077.08 269.5L1074 277L1114 269.5Z" fill="#898989"/>
<path d="M1114 159V279" stroke="#2D2B2B" stroke-width="2"/>
<path d="M174 159V279" stroke="#2D2B2B" stroke-width="2"/>
<path d="M184 270H1098" stroke="#898989" stroke-width="2"/>
<path d="M941.203 579.738C941.991 582.915 942.53 586.187 942.8 589.533L941.804 589.613C941.934 591.225 942 592.855 942 594.5C942 596.145 941.934 597.775 941.804 599.387L942.8 599.466C942.53 602.812 941.991 606.084 941.203 609.261L940.233 609.021C939.443 612.209 938.399 615.301 937.121 618.273L938.038 618.667C936.725 621.723 935.17 624.655 933.397 627.441L932.555 626.906C930.803 629.658 928.835 632.266 926.674 634.706L927.422 635.368C925.229 637.844 922.841 640.15 920.28 642.263L919.645 641.491C917.139 643.558 914.465 645.438 911.647 647.108L912.157 647.969C909.325 649.647 906.349 651.116 903.252 652.355L902.882 651.428C899.883 652.628 896.767 653.609 893.557 654.351L893.781 655.323C890.595 656.059 887.317 656.562 883.967 656.813L883.894 655.817C882.279 655.938 880.647 656 879 656C877.353 656 875.721 655.938 874.106 655.817L874.032 656.813C870.682 656.562 867.405 656.059 864.219 655.323L864.443 654.351C861.233 653.609 858.117 652.628 855.118 651.428L854.747 652.355C851.65 651.116 848.674 649.647 845.842 647.969H845.843L846.353 647.108C843.535 645.438 840.861 643.558 838.355 641.491L837.719 642.263C835.158 640.15 832.77 637.844 830.577 635.368L831.326 634.706C829.165 632.266 827.197 629.658 825.445 626.906L824.602 627.441C822.829 624.655 821.274 621.723 819.961 618.667L820.879 618.273C819.601 615.301 818.557 612.209 817.767 609.021L816.796 609.261C816.008 606.084 815.469 602.812 815.199 599.466L816.196 599.387C816.066 597.775 816 596.145 816 594.5C816 592.855 816.066 591.225 816.196 589.613L815.199 589.533C815.45 586.414 815.936 583.359 816.639 580.385L816.796 579.738L817.767 579.979C818.557 576.791 819.601 573.699 820.879 570.727L819.961 570.332C821.274 567.276 822.829 564.344 824.602 561.558L825.445 562.094C827.197 559.342 829.165 556.734 831.326 554.294L830.577 553.631C832.77 551.155 835.158 548.849 837.719 546.736L837.72 546.737L838.355 547.509C840.861 545.442 843.535 543.562 846.353 541.892L845.843 541.031L845.842 541.03C848.674 539.352 851.65 537.883 854.747 536.644L855.118 537.572C858.117 536.372 861.233 535.391 864.443 534.649L864.218 533.676C867.404 532.94 870.682 532.437 874.032 532.186L874.106 533.183C875.721 533.062 877.353 533 879 533C880.647 533 882.279 533.062 883.894 533.183L883.967 532.186C887.317 532.437 890.594 532.94 893.78 533.676L893.557 534.649C896.767 535.391 899.883 536.372 902.882 537.572L903.252 536.644C906.349 537.883 909.325 539.352 912.157 541.03V541.031L911.647 541.892C914.465 543.562 917.139 545.442 919.645 547.509L920.28 546.737V546.736C922.841 548.849 925.229 551.155 927.422 553.631L926.674 554.294C928.835 556.734 930.803 559.342 932.555 562.094L933.397 561.558C935.17 564.344 936.725 567.276 938.038 570.332H938.039L937.121 570.727C938.399 573.699 939.443 576.791 940.233 579.979L941.203 579.738Z" stroke="#898989" stroke-width="2" stroke-dasharray="10 10"/>
<path d="M340 1280.34L346.993 1231L489 1292.68L419.61 1394.17L382.495 1508L359.365 1480.52L373.888 1336.98L340 1280.34Z" stroke="#2D2B2B" stroke-width="4"/>
<path d="M272.293 1158L316.121 1103.01M316.121 1103.01L412.5 1065L330 1048.5M316.121 1103.01L330 1048.5M330 1048.5L234 1035" stroke="#898989" stroke-width="2" stroke-dasharray="10 10"/>
<path d="M111.5 1003L147 977" stroke="#898989" stroke-width="2" stroke-dasharray="10 10"/>
<path d="M235 1035L298 971.103M235 1035L147 977.276M235 1035L197.869 1078.3L271.227 1158" stroke="#898989" stroke-width="2" stroke-dasharray="10 10"/>
<path d="M341 1281L487 1293.94L374.816 1336.69L421.5 1390" stroke="#898989" stroke-width="2" stroke-dasharray="10 10"/>
<path d="M680.5 1382L711.123 1377.59L660.299 1343.4L745.5 1256M745.5 1256L550 1211.16L710.042 1154L745.5 1256Z" stroke="#898989" stroke-width="2" stroke-dasharray="10 10"/>
<path d="M658 1086.12L677.337 1057.65L707.416 1074.96L844.921 1079.98M844.921 1079.98L841.161 1176H1014.12L992.631 1045.27L1092 946V1021.92L844.921 1079.98Z" stroke="#898989" stroke-width="2" stroke-dasharray="10 10"/>
<path d="M845 1081L859.478 970L993 1046.24" stroke="#898989" stroke-width="2" stroke-dasharray="10 10"/>
<path d="M1010 1391.25L1105 1328V1417" stroke="#898989" stroke-width="2" stroke-dasharray="10 10"/>
<path d="M461.691 999L519.599 871L425.766 927.702L407 879.982L570 899.07" stroke="#898989" stroke-width="2" stroke-dasharray="10 10"/>
<path d="M641.241 1048.2L580 1125.98L657.357 1086.81L686.904 1116.46L707.854 1075.06L733.64 1151.15L769.633 1210.46L804.014 1187.52L769.633 1167.38L778.765 1144.44L840.544 1175.77L872.239 1239L1015.13 1175.77L1034.47 1116.46L1083.36 1086.81L1091.42 1022.46L1237 981.06L959.803 910L860.42 967.071L733.64 997.286L677.771 1056.6L641.241 1048.2Z" stroke="#2D2B2B" stroke-width="4"/>
<path d="M1106.23 1327.7L985 1304L1001.56 1350.84L1010.1 1391.48L1106.23 1418L1134 1368.34L1106.23 1327.7Z" stroke="#2D2B2B" stroke-width="4"/>
<path d="M569 898.165L460.93 998L425.444 928.452L362 912.187L406.088 878.535L522.761 869L569 898.165Z" stroke="#2D2B2B" stroke-width="4"/>
<path d="M745 956.5L693 1005.5L720.5 845L802 951L745 956.5Z" stroke="#2D2B2B" stroke-width="4"/>
<path d="M78.3121 956.734L44 1046.28L111.016 1004.3L197.332 1079.29L232.717 1177.23L329.756 1222L271.854 1158.76H334.045L415 1065.3L394.627 982.477L342.087 956.734L372.11 1008.78L329.756 1046.28L297.052 971.844L329.756 917L221.458 960.651L145.864 975.761L78.3121 956.734Z" stroke="#2D2B2B" stroke-width="4"/>
<path d="M659.748 1346.64L705.095 1428L711.033 1378.62L758 1218.71L711.033 1151.93L634.375 1125L548 1212.53L580.391 1253.49L627.897 1231.05L659.748 1267.52V1346.64Z" stroke="#2D2B2B" stroke-width="4"/>
<path d="M40.0664 1616.19L40.0828 2234.92" stroke="#2D2B2B" stroke-width="3"/>
<path d="M1240.13 1616.84L1240.15 2234.42" stroke="#2D2B2B" stroke-width="3"/>
<path d="M42.9586 1749H1235.96" stroke="#898989" stroke-width="2"/>
<path d="M42.9586 1912H1235.96" stroke="#898989" stroke-width="2"/>
<path d="M42.9586 2075H1235.96" stroke="#898989" stroke-width="2"/>
<path d="M1239 1748.97L1210.96 1753.95L1213.12 1748.98L1210.96 1744.01L1239 1748.97Z" fill="#898989"/>
<path d="M1240 1911.97L1211.96 1916.95L1214.12 1911.98L1211.96 1907.01L1240 1911.97Z" fill="#898989"/>
<path d="M1240 2074.97L1211.96 2079.95L1214.12 2074.98L1211.96 2070.01L1240 2074.97Z" fill="#898989"/>
<path d="M40.9611 1748.97L68.9976 1753.95L66.8431 1748.98L69.0024 1744.01L40.9611 1748.97Z" fill="#898989"/>
<path d="M40.9611 1911.97L68.9976 1916.95L66.8431 1911.98L69.0024 1907.01L40.9611 1911.97Z" fill="#898989"/>
<path d="M40.9611 2074.97L68.9976 2079.95L66.8431 2074.98L69.0024 2070.01L40.9611 2074.97Z" fill="#898989"/>
<path d="M744.5 956L721 847" stroke="#898989" stroke-width="2" stroke-dasharray="10 10"/>
</g>
<defs>
<clipPath id="clip0_682_1366">
<rect width="1280" height="2279" fill="white"/>
</clipPath>
</defs>
</svg>
