<svg width="128" height="125" viewBox="0 0 128 125" fill="none" xmlns="http://www.w3.org/2000/svg">
<path d="M93.8975 7.22559C97.5998 9.13933 101.087 11.3973 104.313 13.9561L103.383 15.1309C106.56 17.6506 109.479 20.4689 112.095 23.541L113.236 22.5693C115.918 25.7194 118.289 29.1307 120.303 32.7588L118.992 33.4873C120.941 36.9991 122.547 40.7183 123.767 44.6016L125.196 44.1523C126.421 48.0526 127.266 52.115 127.688 56.2988H127.688L126.196 56.4492C126.397 58.4391 126.5 60.4577 126.5 62.5C126.5 64.5423 126.397 66.5609 126.196 68.5508L127.688 68.7002C127.266 72.8841 126.421 76.9464 125.196 80.8467L123.767 80.3984C122.547 84.2817 120.941 88.0009 118.992 91.5127L120.303 92.2402C118.289 95.8683 115.918 99.2796 113.236 102.43L112.095 101.459C109.479 104.531 106.56 107.349 103.383 109.869L104.313 111.043C101.087 113.602 97.5998 115.86 93.8975 117.773L93.21 116.442C89.6516 118.282 85.8894 119.796 81.9648 120.943L82.3848 122.382C78.4683 123.527 74.3944 124.315 70.2021 124.709L70.0625 123.217C68.068 123.404 66.0457 123.5 64 123.5C61.9543 123.5 59.932 123.404 57.9375 123.217L57.7969 124.709C53.6046 124.315 49.5307 123.527 45.6143 122.382L46.0352 120.943C42.1106 119.796 38.3484 118.282 34.79 116.442L34.1016 117.773C30.3993 115.86 26.9124 113.602 23.6855 111.043L24.6172 109.869C21.4396 107.349 18.5207 104.531 15.9053 101.459L14.7627 102.43C12.081 99.2796 9.71001 95.8683 7.69629 92.2402L9.00781 91.5127C7.05858 88.0009 5.45274 84.2817 4.2334 80.3984L2.80273 80.8467C1.57813 76.9464 0.733439 72.884 0.311523 68.7002L1.80371 68.5508C1.60301 66.5609 1.5 64.5423 1.5 62.5C1.5 60.4577 1.60301 58.4391 1.80371 56.4492L0.311523 56.2988C0.733504 52.1151 1.57808 48.0526 2.80273 44.1523L4.2334 44.6016C5.45274 40.7183 7.05858 36.9991 9.00781 33.4873L7.69629 32.7588C9.71004 29.1308 12.081 25.7194 14.7627 22.5693L15.9053 23.541C18.5207 20.4689 21.4396 17.6506 24.6172 15.1309L23.6855 13.9561C26.7354 11.5376 30.0174 9.38737 33.4941 7.54297L34.1016 7.22559L34.79 8.55762C38.3484 6.7182 42.1106 5.20412 46.0352 4.05664L45.6143 2.61719C49.5306 1.4721 53.6047 0.68379 57.7969 0.290039L57.9375 1.7832C59.932 1.59588 61.9543 1.5 64 1.5C66.0457 1.5 68.068 1.59588 70.0625 1.7832L70.2021 0.290039C74.3944 0.683729 78.4684 1.47215 82.3848 2.61719L81.9648 4.05664C85.8894 5.20412 89.6516 6.7182 93.21 8.55762L93.8975 7.22559Z" stroke="#898989" stroke-width="3" stroke-dasharray="12 12"/>
</svg>
