<svg width="128" height="125" viewBox="0 0 128 125" fill="none" xmlns="http://www.w3.org/2000/svg">
<path d="M126.203 47.7383C126.991 50.9154 127.53 54.1872 127.8 57.5332L126.306 57.6533C126.434 59.2521 126.5 60.8684 126.5 62.5C126.5 64.1316 126.434 65.7479 126.306 67.3467L127.8 67.4658C127.53 70.8119 126.991 74.0836 126.203 77.2607L124.748 76.9014C123.964 80.0627 122.928 83.1282 121.661 86.0762L123.038 86.667C121.725 89.7229 120.17 92.6552 118.397 95.4414L117.133 94.6377C115.396 97.3673 113.444 99.9536 111.3 102.374L112.422 103.368C110.229 105.844 107.841 108.15 105.28 110.263L104.326 109.105C101.841 111.156 99.1883 113.022 96.3926 114.679L97.1572 115.969C94.3254 117.647 91.3493 119.116 88.252 120.355L87.6963 118.964C84.7206 120.155 81.6295 121.128 78.4443 121.863L78.7812 123.323C75.5951 124.059 72.3172 124.562 68.9668 124.813L68.8555 123.318C67.2534 123.438 65.6342 123.5 64 123.5C62.3658 123.5 60.7466 123.438 59.1445 123.318L59.0322 124.813C55.6822 124.562 52.4046 124.059 49.2188 123.323L49.5557 121.863C46.3705 121.128 43.2794 120.155 40.3037 118.964L39.7471 120.355C36.6497 119.116 33.6736 117.647 30.8418 115.969H30.8428L31.6074 114.679C28.8117 113.022 26.1595 111.156 23.6738 109.105L22.7188 110.263C20.158 108.15 17.7699 105.844 15.5771 103.368L16.7002 102.374C14.5562 99.9536 12.6042 97.3673 10.8672 94.6377L9.60156 95.4414C7.82865 92.6552 6.27414 89.7228 4.96094 86.667L6.33887 86.0762C5.07197 83.1282 4.03588 80.0627 3.25195 76.9014L1.7959 77.2607C1.00815 74.0836 0.468548 70.8118 0.199219 67.4658L1.69434 67.3467C1.56562 65.7479 1.5 64.1316 1.5 62.5C1.5 60.8684 1.56562 59.2521 1.69434 57.6533L0.199219 57.5332C0.450361 54.4138 0.935689 51.3586 1.63867 48.3848L1.7959 47.7383L3.25195 48.0986C4.03588 44.9373 5.07197 41.8718 6.33887 38.9238L4.96094 38.332C6.27417 35.2762 7.82863 32.3438 9.60156 29.5576L10.8672 30.3623C12.6042 27.6327 14.5562 25.0464 16.7002 22.626L15.5771 21.6309C17.7699 19.1553 20.158 16.8491 22.7188 14.7363L22.7197 14.7373L23.6738 15.8945C26.1595 13.8437 28.8117 11.9782 31.6074 10.3213L30.8428 9.03125L30.8418 9.03027C33.6735 7.35198 36.6498 5.88307 39.7471 4.64355L40.3037 6.03613C43.2794 4.84527 46.3705 3.87215 49.5557 3.13672L49.2178 1.67578C52.4038 0.940122 55.6819 0.436727 59.0322 0.185547L59.1445 1.68164C60.7466 1.56153 62.3658 1.5 64 1.5C65.6342 1.5 67.2534 1.56153 68.8555 1.68164L68.9668 0.185547C72.3168 0.436654 75.5945 0.940283 78.7803 1.67578L78.4443 3.13672C81.6295 3.87215 84.7206 4.84527 87.6963 6.03613L88.252 4.64355C91.3493 5.88303 94.3254 7.35201 97.1572 9.03027V9.03125L96.3926 10.3213C99.1883 11.9782 101.841 13.8437 104.326 15.8945L105.28 14.7373V14.7363C107.841 16.8491 110.229 19.1553 112.422 21.6309L111.3 22.626C113.444 25.0464 115.396 27.6327 117.133 30.3623L118.397 29.5576C120.17 32.3438 121.725 35.2762 123.038 38.332H123.039L121.661 38.9238C122.928 41.8718 123.964 44.9373 124.748 48.0986L126.203 47.7383Z" stroke="#898989" stroke-width="3" stroke-dasharray="10 10"/>
</svg>
