<svg width="1284" height="317" viewBox="0 0 1284 317" fill="none" xmlns="http://www.w3.org/2000/svg">
<rect width="1280" height="316" transform="translate(2.5)" fill="#FBFBFB"/>
<g clip-path="url(#clip0_1231_39)">
<mask id="mask0_1231_39" style="mask-type:luminance" maskUnits="userSpaceOnUse" x="43" y="138" width="303" height="120">
<path d="M345.5 138.5H43.5V257.073H345.5V138.5Z" fill="white"/>
</mask>
<g mask="url(#mask0_1231_39)">
<mask id="mask1_1231_39" style="mask-type:luminance" maskUnits="userSpaceOnUse" x="43" y="138" width="303" height="120">
<path d="M345.5 138.5H43.5V257.073H345.5V138.5Z" fill="white"/>
</mask>
<g mask="url(#mask1_1231_39)">
<path d="M58.42 171.575H52.3728V197.082H43.5V139.045H52.3728V162.29H58.42V139.045H67.2928V197.079H58.42V171.575Z" fill="#2D2B2B"/>
<path d="M82.4473 197.703H80.7178C73.6523 197.703 69.8824 193.881 69.8824 186.704V175.084H78.6774V185.226C78.6774 187.878 79.5403 189.283 81.5845 189.283C83.6289 189.283 84.4877 187.878 84.4877 184.291V182.967C84.4877 178.833 84.0951 177.35 80.8771 173.215L75.2225 166.038C71.4526 161.201 70.3527 157.456 70.3527 151.684V149.812C70.3527 142.09 74.278 138.5 81.2657 138.5H82.9176C90.2203 138.5 93.0456 141.697 93.0456 148.561V158.077H84.4877V149.731C84.4877 147.781 84.0951 146.299 81.9771 146.299C79.859 146.299 79.3847 147.623 79.3847 150.356V151.449C79.3847 154.726 80.0143 156.518 82.9952 160.34L88.6501 167.594C92.653 172.74 93.9085 175.705 93.9085 182.257V184.129C93.9085 192.63 90.2203 197.7 82.4436 197.7L82.4473 197.703Z" fill="#2D2B2B"/>
<path d="M116.605 139.045V147.469H105.295V162.68H114.168V171.494H105.295V188.265H117.075V197.079H96.4227V139.045H116.601H116.605Z" fill="#2D2B2B"/>
<path d="M141.027 186.16H134.587L133.409 197.082H125.478L132.625 139.045H143.145L150.762 197.079H142.205L141.027 186.157V186.16ZM140.083 177.501L137.727 156.051L135.45 177.501H140.083Z" fill="#2D2B2B"/>
<path d="M161.049 197.079H152.176V139.045H166.544C172.432 139.045 175.417 141.543 175.417 148.013V158.31C175.417 163.147 173.139 165.019 171.569 165.718C173.532 166.575 175.417 168.135 175.417 172.038V192.395C175.417 194.735 175.887 195.828 176.28 196.685V197.074H167.484C167.092 196.449 166.622 195.438 166.622 192.318V174.845C166.622 172.27 166.151 171.177 163.326 171.177H161.049V197.074V197.079ZM161.049 162.912H163.404C165.841 162.912 166.622 161.352 166.622 158.777V150.669C166.622 148.172 166.074 146.925 163.404 146.925H161.049V162.915V162.912Z" fill="#2D2B2B"/>
<path d="M193.322 147.469V197.079H184.526V147.469H177.069V139.045H200.783V147.469H193.325H193.322Z" fill="#2D2B2B"/>
<path d="M224.651 186.16H218.211L217.033 197.082H209.101L216.248 139.045H226.769L234.386 197.079H225.828L224.651 186.157V186.16ZM223.706 177.501L221.351 156.051L219.073 177.501H223.706Z" fill="#2D2B2B"/>
<path d="M243.812 139.045L251.43 170.17V139.045H259.518V197.079H252.293L243.812 163.695V197.079H235.803V139.045H243.812Z" fill="#2D2B2B"/>
<path d="M262.816 139.045H276.4C284.017 139.045 286.372 143.334 286.372 150.198V185.535C286.372 192.635 283.702 197.079 276.4 197.079H262.816V139.045ZM271.69 188.655H273.808C276.477 188.655 277.262 187.249 277.262 184.13V151.449C277.262 148.094 276.4 146.925 274.2 146.925H271.69V188.655Z" fill="#2D2B2B"/>
<path d="M43.5 198.254H57.0831C64.7005 198.254 67.0557 202.543 67.0557 209.408V244.74C67.0557 251.84 64.3858 256.284 57.0831 256.284H43.5V198.254ZM52.3728 247.864H54.4948C57.1647 247.864 57.9498 246.458 57.9498 243.339V210.654C57.9498 207.3 57.087 206.13 54.8873 206.13H52.3728V247.859V247.864Z" fill="#2D2B2B"/>
<path d="M90.3792 198.254V206.678H79.0737V221.889H87.9465V230.703H79.0737V247.473H90.8535V256.287H70.2009V198.254H90.3792Z" fill="#2D2B2B"/>
<path d="M104.982 256.912H103.253C96.1872 256.912 92.4174 253.09 92.4174 245.913V234.292H101.212V244.435C101.212 247.087 102.075 248.492 104.116 248.492C106.156 248.492 107.023 247.087 107.023 243.5V242.176C107.023 238.042 106.63 236.559 103.412 232.424L97.7573 225.247C93.9875 220.41 92.8876 216.665 92.8876 210.893V209.021C92.8876 201.299 96.8128 197.709 103.801 197.709H105.449C112.751 197.709 115.576 200.906 115.576 207.77V217.287H107.019V208.939C107.019 206.99 106.626 205.507 104.504 205.507C102.382 205.507 101.912 206.832 101.912 209.565V210.658C101.912 213.935 102.542 215.727 105.523 219.549L111.177 226.803C115.18 231.949 116.44 234.914 116.44 241.466V243.338C116.44 251.839 112.751 256.912 104.974 256.912H104.982Z" fill="#2D2B2B"/>
<path d="M127.833 256.287H118.96V198.254H127.833V256.287Z" fill="#2D2B2B"/>
<path d="M139.38 257.071C134.2 257.071 130.9 252.469 130.9 246.461V210.191C130.9 203.716 133.414 197.709 141.813 197.709H143.543C153.045 197.709 154.145 203.87 154.145 210.734V216.661H145.509V210.109C145.509 207.534 144.879 206.129 142.684 206.129C140.799 206.129 139.936 207.534 139.936 210.109V244.041C139.936 246.77 141.035 248.176 142.839 248.176C145.117 248.176 146.139 246.616 146.139 244.431V229.922H142.135V221.031H154.541V256.287H149.516C149.438 255.974 148.731 253.09 148.023 250.593C147.394 252.542 144.413 257.067 139.936 257.067H139.388L139.38 257.071Z" fill="#2D2B2B"/>
<path d="M165.605 198.254L173.222 229.379V198.254H181.31V256.287H174.085L165.605 222.905V256.287H157.595V198.254H165.605Z" fill="#2D2B2B"/>
<path d="M204.474 256.912H202.744C195.679 256.912 191.909 253.09 191.909 245.913V234.292H200.704V244.435C200.704 247.087 201.567 248.492 203.611 248.492C205.655 248.492 206.515 247.087 206.515 243.5V242.176C206.515 238.042 206.122 236.559 202.904 232.424L197.249 225.247C193.479 220.41 192.38 216.665 192.38 210.893V209.021C192.38 201.299 196.305 197.709 203.292 197.709H204.944C212.247 197.709 215.072 200.906 215.072 207.77V217.287H206.515V208.939C206.515 206.99 206.122 205.507 204.004 205.507C201.886 205.507 201.411 206.832 201.411 209.565V210.658C201.411 213.935 202.041 215.727 205.022 219.549L210.676 226.803C214.68 231.949 215.935 234.914 215.935 241.466V243.338C215.935 251.839 212.247 256.912 204.47 256.912H204.474Z" fill="#2D2B2B"/>
<path d="M232.975 244.511V231.018H241.692V244.434C241.692 250.672 239.652 256.993 231.09 256.993H229.128C220.177 256.993 218.214 250.596 218.214 244.746V209.332C218.214 203.406 220.807 197.712 228.813 197.712H230.853C240.589 197.712 241.688 204.109 241.688 209.803V220.177H232.972V209.958C232.972 207.46 232.186 206.136 229.986 206.136C227.787 206.136 227.239 207.383 227.239 209.958V244.434C227.239 247.009 228.102 248.41 230.064 248.41C232.182 248.41 232.972 246.85 232.972 244.511H232.975Z" fill="#2D2B2B"/>
<path d="M259.439 230.784H253.391V256.292H244.519V198.254H253.391V221.499H259.439V198.254H268.311V256.287H259.439V230.78V230.784Z" fill="#2D2B2B"/>
<path d="M295.638 243.342C295.638 251.453 292.89 256.993 284.332 256.993H282.84C274.36 256.993 271.375 251.457 271.375 243.342V211.048C271.375 203.014 274.437 197.709 282.758 197.709H284.25C292.886 197.709 295.634 203.014 295.634 210.97V243.342H295.638ZM286.609 210.58C286.609 207.538 285.587 206.133 283.547 206.133C281.27 206.133 280.407 207.616 280.407 210.58V243.964C280.407 246.461 281.114 248.411 283.625 248.411C285.98 248.411 286.609 246.461 286.609 243.964V210.58Z" fill="#2D2B2B"/>
<path d="M322.729 243.342C322.729 251.453 319.981 256.993 311.421 256.993H309.928C301.447 256.993 298.463 251.457 298.463 243.342V211.048C298.463 203.014 301.525 197.709 309.85 197.709H311.343C319.979 197.709 322.726 203.014 322.726 210.97L322.729 243.342ZM313.701 210.58C313.701 207.538 312.679 206.133 310.639 206.133C308.361 206.133 307.499 207.616 307.499 210.58V243.964C307.499 246.461 308.202 248.411 310.717 248.411C313.072 248.411 313.701 246.461 313.701 243.964V210.58Z" fill="#2D2B2B"/>
<path d="M334.66 198.254V247.315H345.495V256.284H325.786V198.254H334.66Z" fill="#2D2B2B"/>
</g>
</g>
</g>
<path d="M2.5 115.877V47.5H1281.43V120" stroke="#898989" stroke-width="2"/>
<path d="M72.9 47.5V81.5" stroke="#898989" stroke-width="3"/>
<path d="M191.9 47.5V81.5" stroke="#898989" stroke-width="3"/>
<path d="M310.9 47.5V81.5" stroke="#898989" stroke-width="3"/>
<path d="M429.9 47.5V81.5" stroke="#898989" stroke-width="3"/>
<path d="M548.9 47.5V81.5" stroke="#898989" stroke-width="3"/>
<path d="M667.9 47.5V81.5" stroke="#898989" stroke-width="3"/>
<path d="M786.9 47.5V81.5" stroke="#898989" stroke-width="3"/>
<path d="M905.9 47.5V81.5" stroke="#898989" stroke-width="3"/>
<path d="M1024.9 47.5V81.5" stroke="#898989" stroke-width="3"/>
<path d="M1143.9 47.5V81.5" stroke="#898989" stroke-width="3"/>
<path d="M132.167 47.5V71.5" stroke="#898989" stroke-width="2"/>
<path d="M251.167 47.5V71.5" stroke="#898989" stroke-width="2"/>
<path d="M370.167 47.5V71.5" stroke="#898989" stroke-width="2"/>
<path d="M489.167 47.5V71.5" stroke="#898989" stroke-width="2"/>
<path d="M608.167 47.5V71.5" stroke="#898989" stroke-width="2"/>
<path d="M727.167 47.5V71.5" stroke="#898989" stroke-width="2"/>
<path d="M846.167 47.5V71.5" stroke="#898989" stroke-width="2"/>
<path d="M965.167 47.5V71.5" stroke="#898989" stroke-width="2"/>
<path d="M1084.17 47.5V71.5" stroke="#898989" stroke-width="2"/>
<path d="M1216.5 47.5V71.5" stroke="#898989" stroke-width="2"/>
<path d="M1282 47V316.5" stroke="#898989" stroke-width="3"/>
<path d="M1.5 316.5L3 49L1282.5 47.5" stroke="#898989" stroke-width="3"/>
<defs>
<clipPath id="clip0_1231_39">
<rect width="302" height="118.573" fill="white" transform="translate(43.5 138.5)"/>
</clipPath>
</defs>
</svg>
