<svg width="1280" height="1582" viewBox="0 0 1280 1582" fill="none" xmlns="http://www.w3.org/2000/svg">
<rect width="1280" height="1582" fill="#FBFBFB"/>
<path d="M1124 141L113 536L834.5 697.5L985.5 906.5L215 1115.5L409 1443" stroke="#898989" stroke-width="3" stroke-dasharray="10 10"/>
<circle cx="1126" cy="139" r="10" fill="#2D2B2B"/>
<circle cx="111" cy="534" r="10" fill="#2D2B2B"/>
<circle cx="838" cy="700" r="10" fill="#2D2B2B"/>
<circle cx="985" cy="905" r="10" fill="#2D2B2B"/>
<circle cx="216" cy="1115" r="10" fill="#2D2B2B"/>
<circle cx="410" cy="1444" r="10" fill="#2D2B2B"/>
<path d="M1101.23 112L1106.27 86.8H1115.34C1118.2 86.8 1120.41 87.424 1121.97 88.672C1123.55 89.92 1124.34 91.672 1124.34 93.928C1124.34 96.064 1123.86 97.888 1122.9 99.4C1121.97 100.888 1120.62 102.028 1118.87 102.82C1117.12 103.612 1115.04 104.008 1112.64 104.008H1104.33L1105.73 102.784L1103.9 112H1101.23ZM1118.48 112L1113.33 102.856H1116.17L1121.36 112H1118.48ZM1105.66 103L1104.76 101.704H1112.68C1115.54 101.704 1117.74 101.068 1119.3 99.796C1120.89 98.524 1121.68 96.652 1121.68 94.18C1121.68 92.524 1121.12 91.264 1119.99 90.4C1118.86 89.536 1117.25 89.104 1115.16 89.104H1107.35L1108.72 87.808L1105.66 103ZM1134.63 112.18C1132.97 112.18 1131.59 111.844 1130.49 111.172C1129.41 110.5 1128.66 109.54 1128.26 108.292C1127.85 107.044 1127.8 105.568 1128.11 103.864L1130.27 93.1H1132.83L1130.67 103.864C1130.31 105.736 1130.51 107.212 1131.28 108.292C1132.05 109.348 1133.39 109.876 1135.31 109.876C1137.3 109.876 1138.96 109.324 1140.28 108.22C1141.62 107.116 1142.52 105.46 1142.98 103.252L1145 93.1H1147.55L1143.77 112H1141.32L1142.4 106.564L1142.94 107.464C1142.06 109.096 1140.88 110.296 1139.42 111.064C1137.98 111.808 1136.38 112.18 1134.63 112.18Z" fill="#2D2B2B"/>
<path d="M91.38 481.068H104.7L104.268 483.336H90.948L91.38 481.068ZM89.328 492.696H104.484L104.016 495H86.232L91.272 469.8H108.552L108.084 472.104H93.432L89.328 492.696ZM122.77 475.92C124.474 475.92 125.866 476.256 126.946 476.928C128.05 477.576 128.806 478.524 129.214 479.772C129.646 481.02 129.682 482.508 129.322 484.236L127.162 495H124.606L126.766 484.2C127.15 482.328 126.946 480.864 126.154 479.808C125.386 478.752 124.018 478.224 122.05 478.224C120.034 478.224 118.354 478.776 117.01 479.88C115.69 480.984 114.802 482.64 114.346 484.848L112.33 495H109.774L113.518 476.1H115.966L114.886 481.536L114.346 480.6C115.258 478.968 116.434 477.78 117.874 477.036C119.338 476.292 120.97 475.92 122.77 475.92Z" fill="#2D2B2B"/>
<path d="M1023.2 877.004H1036.52L1036.05 879.308H1022.7L1023.2 877.004ZM1020.86 890H1018.23L1023.27 864.8H1040.55L1040.08 867.104H1025.43L1020.86 890ZM1040.47 890L1044.22 871.1H1046.77L1043.03 890H1040.47ZM1046.59 866.924C1046.09 866.924 1045.67 866.756 1045.33 866.42C1045.02 866.084 1044.87 865.688 1044.87 865.232C1044.87 864.704 1045.05 864.248 1045.41 863.864C1045.79 863.48 1046.27 863.288 1046.85 863.288C1047.35 863.288 1047.77 863.444 1048.11 863.756C1048.44 864.068 1048.61 864.464 1048.61 864.944C1048.61 865.52 1048.42 866 1048.03 866.384C1047.65 866.744 1047.17 866.924 1046.59 866.924Z" fill="#2D2B2B"/>
<path d="M429.396 1410L423.24 1384.8H425.976L431.7 1408.49H430.08L445.38 1384.8H448.188L431.988 1410H429.396ZM446.196 1410L449.94 1391.1H452.496L448.752 1410H446.196ZM452.316 1386.92C451.812 1386.92 451.392 1386.76 451.056 1386.42C450.744 1386.08 450.588 1385.69 450.588 1385.23C450.588 1384.7 450.768 1384.25 451.128 1383.86C451.512 1383.48 451.992 1383.29 452.568 1383.29C453.072 1383.29 453.492 1383.44 453.828 1383.76C454.164 1384.07 454.332 1384.46 454.332 1384.94C454.332 1385.52 454.14 1386 453.756 1386.38C453.372 1386.74 452.892 1386.92 452.316 1386.92Z" fill="#2D2B2B"/>
</svg>
