<svg width="1280" height="1165" viewBox="0 0 1280 1165" fill="none" xmlns="http://www.w3.org/2000/svg">
<g clip-path="url(#clip0_682_1366)">
<rect width="1280" height="1165" fill="#FBFBFB"/>
<path d="M340.063 836.344L347.056 787L489.063 848.68L419.674 950.172L382.558 1064L359.428 1036.52L373.952 892.978L340.063 836.344Z" stroke="#2D2B2B" stroke-width="4"/>
<path d="M272.357 714L316.184 659.014M316.184 659.014L412.563 621L330.063 604.5M316.184 659.014L330.063 604.5M330.063 604.5L234.063 591" stroke="#898989" stroke-width="2" stroke-dasharray="10 10"/>
<path d="M111.563 559L147.063 533" stroke="#898989" stroke-width="2" stroke-dasharray="10 10"/>
<path d="M235.063 591L298.063 527.103M235.063 591L147.063 533.276M235.063 591L197.932 634.302L271.29 714" stroke="#898989" stroke-width="2" stroke-dasharray="10 10"/>
<path d="M341.063 837L487.063 849.938L374.88 892.688L421.563 946" stroke="#898989" stroke-width="2" stroke-dasharray="10 10"/>
<path d="M680.563 938L711.187 933.585L660.363 899.403L745.563 812M745.563 812L550.063 767.157L710.105 710L745.563 812Z" stroke="#898989" stroke-width="2" stroke-dasharray="10 10"/>
<path d="M658.063 642.121L677.4 613.65L707.479 630.956L844.984 635.981M844.984 635.981L841.224 732H1014.18L992.695 601.272L1092.06 502V577.922L844.984 635.981Z" stroke="#898989" stroke-width="2" stroke-dasharray="10 10"/>
<path d="M845.063 637L859.542 526L993.063 602.242" stroke="#898989" stroke-width="2" stroke-dasharray="10 10"/>
<path d="M1010.06 947.252L1105.06 884V973" stroke="#898989" stroke-width="2" stroke-dasharray="10 10"/>
<path d="M461.754 555L519.662 427L425.83 483.702L407.063 435.982L570.063 455.07" stroke="#898989" stroke-width="2" stroke-dasharray="10 10"/>
<path d="M641.305 604.202L580.063 681.976L657.421 642.81L686.967 672.464L707.918 631.06L733.704 707.155L769.696 766.464L804.077 743.524L769.696 723.381L778.829 700.44L840.607 731.774L872.302 795L1015.2 731.774L1034.54 672.464L1083.42 642.81L1091.48 578.464L1237.06 537.06L959.866 466L860.484 523.071L733.704 553.286L677.835 612.595L641.305 604.202Z" stroke="#2D2B2B" stroke-width="4"/>
<path d="M1106.29 883.703L985.063 860L1001.62 906.842L1010.16 947.475L1106.29 974L1134.06 924.337L1106.29 883.703Z" stroke="#2D2B2B" stroke-width="4"/>
<path d="M569.063 454.165L460.993 554L425.508 484.452L362.063 468.187L406.152 434.535L522.825 425L569.063 454.165Z" stroke="#2D2B2B" stroke-width="4"/>
<path d="M745.063 512.5L693.063 561.5L720.563 401L802.063 507L745.063 512.5Z" stroke="#2D2B2B" stroke-width="4"/>
<path d="M78.3756 512.734L44.0635 602.275L111.079 560.303L197.396 635.294L232.78 733.229L329.819 778L271.918 714.761H334.108L415.063 621.303L394.691 538.477L342.15 512.734L372.173 564.78L329.819 602.275L297.115 527.844L329.819 473L221.522 516.651L145.928 531.761L78.3756 512.734Z" stroke="#2D2B2B" stroke-width="4"/>
<path d="M659.812 902.639L705.159 984L711.097 934.622L758.063 774.706L711.097 707.933L634.439 681L548.063 768.533L580.454 809.494L627.961 787.05L659.812 823.522V902.639Z" stroke="#2D2B2B" stroke-width="4"/>
<path d="M744.563 512L721.063 403" stroke="#898989" stroke-width="2" stroke-dasharray="10 10"/>
</g>
<defs>
<clipPath id="clip0_682_1366">
<rect width="1280" height="1165" fill="white"/>
</clipPath>
</defs>
</svg>
