<svg width="1280" height="719" viewBox="0 0 1280 719" fill="none" xmlns="http://www.w3.org/2000/svg">
<g clip-path="url(#clip0_682_1245)">
<rect width="1280" height="719" fill="#FBFBFB"/>
<path d="M187 506L341.5 321" stroke="#6B6B6B" stroke-width="2"/>
<path d="M340 322.5L680 322.5" stroke="#898989" stroke-width="2"/>
<circle cx="191" cy="492" r="227" stroke="#2D2B2B" stroke-width="4"/>
<path d="M41 78V606H780H1235.5" stroke="#898989" stroke-width="2" stroke-dasharray="10 10"/>
<circle cx="186" cy="508" r="6" fill="#2D2B2B"/>
<path d="M143.672 523.384C140.376 523.384 137.544 522.792 135.176 521.608C132.808 520.424 131 518.776 129.752 516.664C128.504 514.52 127.88 512.04 127.88 509.224C127.88 505.48 128.728 502.072 130.424 499C132.12 495.928 134.504 493.496 137.576 491.704C140.68 489.912 144.248 489.016 148.28 489.016C151.576 489.016 154.408 489.608 156.776 490.792C159.176 491.976 161 493.64 162.248 495.784C163.496 497.896 164.12 500.36 164.12 503.176C164.12 506.92 163.272 510.328 161.576 513.4C159.88 516.472 157.48 518.904 154.376 520.696C151.272 522.488 147.704 523.384 143.672 523.384ZM144.104 519.112C147.112 519.112 149.768 518.408 152.072 517C154.376 515.592 156.152 513.704 157.4 511.336C158.648 508.936 159.272 506.312 159.272 503.464C159.272 500.36 158.28 497.896 156.296 496.072C154.344 494.216 151.544 493.288 147.896 493.288C144.888 493.288 142.232 493.992 139.928 495.4C137.624 496.808 135.832 498.712 134.552 501.112C133.304 503.512 132.68 506.12 132.68 508.936C132.68 512.04 133.672 514.52 135.656 516.376C137.64 518.2 140.456 519.112 144.104 519.112Z" fill="#2D2B2B"/>
<path d="M421 607L419 84" stroke="#898989" stroke-width="2" stroke-dasharray="10 10"/>
<path d="M40.9994 227.499L419 227" stroke="#6B6B6B" stroke-width="2"/>
<path d="M421.041 226.968L393.005 231.95L395.159 226.981L393 222.014L421.041 226.968Z" fill="#7B7B7B"/>
<path d="M421.041 226.968L393.005 231.95L395.159 226.981L393 222.014L421.041 226.968Z" fill="#7B7B7B"/>
<path d="M820.84 177.024V178.88H811.592V177.024H815.304V167.456H811.848V165.6H817.576V177.024H820.84ZM831.976 165.6H834.408L819.112 188H816.68L831.976 165.6ZM836.104 180.224C837.533 180.331 838.621 180.736 839.368 181.44C840.136 182.123 840.52 182.997 840.52 184.064C840.52 185.237 840.019 186.219 839.016 187.008C838.013 187.776 836.595 188.16 834.76 188.16C833.608 188.16 832.52 188.011 831.496 187.712C830.493 187.413 829.725 187.019 829.192 186.528L830.088 184.832C830.621 185.259 831.293 185.6 832.104 185.856C832.936 186.112 833.821 186.24 834.76 186.24C835.912 186.24 836.787 186.048 837.384 185.664C837.981 185.28 838.28 184.747 838.28 184.064C838.28 183.381 837.992 182.859 837.416 182.496C836.861 182.112 836.019 181.92 834.888 181.92H833.384V180.416L836.968 176.576H829.608V174.72H839.88V176.16L836.104 180.224Z" fill="#2D2B2B"/>
<path d="M905.16 177.024V178.88H894.472V177.44L900.392 172.256C901.139 171.595 901.64 171.061 901.896 170.656C902.173 170.229 902.312 169.803 902.312 169.376C902.312 168.779 902.045 168.299 901.512 167.936C900.979 167.552 900.179 167.36 899.112 167.36C898.323 167.36 897.619 167.488 897 167.744C896.381 167.979 895.869 168.331 895.464 168.8L893.896 167.584C895.027 166.155 896.819 165.44 899.272 165.44C900.957 165.44 902.259 165.792 903.176 166.496C904.093 167.2 904.552 168.107 904.552 169.216C904.552 169.899 904.381 170.539 904.04 171.136C903.699 171.733 903.048 172.459 902.088 173.312L897.864 177.024H905.16ZM915.976 165.6H918.408L903.112 188H900.68L915.976 165.6ZM920.104 180.224C921.533 180.331 922.621 180.736 923.368 181.44C924.136 182.123 924.52 182.997 924.52 184.064C924.52 185.237 924.019 186.219 923.016 187.008C922.013 187.776 920.595 188.16 918.76 188.16C917.608 188.16 916.52 188.011 915.496 187.712C914.493 187.413 913.725 187.019 913.192 186.528L914.088 184.832C914.621 185.259 915.293 185.6 916.104 185.856C916.936 186.112 917.821 186.24 918.76 186.24C919.912 186.24 920.787 186.048 921.384 185.664C921.981 185.28 922.28 184.747 922.28 184.064C922.28 183.381 921.992 182.859 921.416 182.496C920.861 182.112 920.019 181.92 918.888 181.92H917.384V180.416L920.968 176.576H913.608V174.72H923.88V176.16L920.104 180.224Z" fill="#2D2B2B"/>
<path d="M989.84 179.024V180.88H980.592V179.024H984.304V169.456H980.848V167.6H986.576V179.024H989.84ZM1000.98 167.6H1003.41L988.112 190H985.68L1000.98 167.6ZM1007.7 183.056C1008.51 183.355 1009.13 183.781 1009.55 184.336C1009.98 184.891 1010.19 185.552 1010.19 186.32C1010.19 187.472 1009.65 188.4 1008.56 189.104C1007.49 189.808 1006.03 190.16 1004.18 190.16C1002.34 190.16 1000.89 189.819 999.824 189.136C998.757 188.432 998.224 187.493 998.224 186.32C998.224 185.552 998.437 184.891 998.864 184.336C999.291 183.781 999.909 183.355 1000.72 183.056C999.355 182.48 998.672 181.52 998.672 180.176C998.672 179.109 999.173 178.245 1000.18 177.584C1001.18 176.901 1002.51 176.56 1004.18 176.56C1005.86 176.56 1007.21 176.901 1008.21 177.584C1009.23 178.245 1009.74 179.12 1009.74 180.208C1009.74 181.531 1009.06 182.48 1007.7 183.056ZM1004.18 178.256C1003.15 178.256 1002.35 178.437 1001.78 178.8C1001.2 179.163 1000.91 179.643 1000.91 180.24C1000.91 180.837 1001.2 181.328 1001.78 181.712C1002.35 182.075 1003.15 182.256 1004.18 182.256C1005.22 182.256 1006.03 182.075 1006.61 181.712C1007.21 181.328 1007.5 180.848 1007.5 180.272C1007.5 179.653 1007.21 179.163 1006.61 178.8C1006.03 178.437 1005.22 178.256 1004.18 178.256ZM1004.18 188.464C1005.35 188.464 1006.27 188.261 1006.93 187.856C1007.61 187.429 1007.95 186.875 1007.95 186.192C1007.95 185.509 1007.62 184.965 1006.96 184.56C1006.3 184.155 1005.37 183.952 1004.18 183.952C1003.02 183.952 1002.12 184.155 1001.46 184.56C1000.79 184.965 1000.46 185.509 1000.46 186.192C1000.46 186.875 1000.78 187.429 1001.42 187.856C1002.09 188.261 1003 188.464 1004.18 188.464Z" fill="#2D2B2B"/>
<path d="M1069.78 172.104C1071.21 172.211 1072.29 172.616 1073.04 173.32C1073.81 174.003 1074.19 174.877 1074.19 175.944C1074.19 177.117 1073.69 178.099 1072.69 178.888C1071.69 179.656 1070.27 180.04 1068.43 180.04C1067.28 180.04 1066.19 179.891 1065.17 179.592C1064.17 179.293 1063.4 178.899 1062.86 178.408L1063.76 176.712C1064.29 177.139 1064.97 177.48 1065.78 177.736C1066.61 177.992 1067.49 178.12 1068.43 178.12C1069.58 178.12 1070.46 177.928 1071.06 177.544C1071.65 177.16 1071.95 176.627 1071.95 175.944C1071.95 175.261 1071.66 174.739 1071.09 174.376C1070.53 173.992 1069.69 173.8 1068.56 173.8H1067.06V172.296L1070.64 168.456H1063.28V166.6H1073.55V168.04L1069.78 172.104ZM1084.98 166.6H1087.41L1072.11 189H1069.68L1084.98 166.6ZM1091.7 182.056C1092.51 182.355 1093.13 182.781 1093.55 183.336C1093.98 183.891 1094.19 184.552 1094.19 185.32C1094.19 186.472 1093.65 187.4 1092.56 188.104C1091.49 188.808 1090.03 189.16 1088.18 189.16C1086.34 189.16 1084.89 188.819 1083.82 188.136C1082.76 187.432 1082.22 186.493 1082.22 185.32C1082.22 184.552 1082.44 183.891 1082.86 183.336C1083.29 182.781 1083.91 182.355 1084.72 182.056C1083.35 181.48 1082.67 180.52 1082.67 179.176C1082.67 178.109 1083.17 177.245 1084.18 176.584C1085.18 175.901 1086.51 175.56 1088.18 175.56C1089.86 175.56 1091.21 175.901 1092.21 176.584C1093.23 177.245 1093.74 178.12 1093.74 179.208C1093.74 180.531 1093.06 181.48 1091.7 182.056ZM1088.18 177.256C1087.15 177.256 1086.35 177.437 1085.78 177.8C1085.2 178.163 1084.91 178.643 1084.91 179.24C1084.91 179.837 1085.2 180.328 1085.78 180.712C1086.35 181.075 1087.15 181.256 1088.18 181.256C1089.22 181.256 1090.03 181.075 1090.61 180.712C1091.21 180.328 1091.5 179.848 1091.5 179.272C1091.5 178.653 1091.21 178.163 1090.61 177.8C1090.03 177.437 1089.22 177.256 1088.18 177.256ZM1088.18 187.464C1089.35 187.464 1090.27 187.261 1090.93 186.856C1091.61 186.429 1091.95 185.875 1091.95 185.192C1091.95 184.509 1091.62 183.965 1090.96 183.56C1090.3 183.155 1089.37 182.952 1088.18 182.952C1087.02 182.952 1086.12 183.155 1085.46 183.56C1084.79 183.965 1084.46 184.509 1084.46 185.192C1084.46 185.875 1084.78 186.429 1085.42 186.856C1086.09 187.261 1087 187.464 1088.18 187.464Z" fill="#2D2B2B"/>
<path d="M1159.77 166.6V168.04L1153.56 179.88H1151.06L1157.05 168.456H1150.17V170.76H1148.15V166.6H1159.77ZM1169.98 166.6H1172.41L1157.11 189H1154.68L1169.98 166.6ZM1176.7 182.056C1177.51 182.355 1178.13 182.781 1178.55 183.336C1178.98 183.891 1179.19 184.552 1179.19 185.32C1179.19 186.472 1178.65 187.4 1177.56 188.104C1176.49 188.808 1175.03 189.16 1173.18 189.16C1171.34 189.16 1169.89 188.819 1168.82 188.136C1167.76 187.432 1167.22 186.493 1167.22 185.32C1167.22 184.552 1167.44 183.891 1167.86 183.336C1168.29 182.781 1168.91 182.355 1169.72 182.056C1168.35 181.48 1167.67 180.52 1167.67 179.176C1167.67 178.109 1168.17 177.245 1169.18 176.584C1170.18 175.901 1171.51 175.56 1173.18 175.56C1174.86 175.56 1176.21 175.901 1177.21 176.584C1178.23 177.245 1178.74 178.12 1178.74 179.208C1178.74 180.531 1178.06 181.48 1176.7 182.056ZM1173.18 177.256C1172.15 177.256 1171.35 177.437 1170.78 177.8C1170.2 178.163 1169.91 178.643 1169.91 179.24C1169.91 179.837 1170.2 180.328 1170.78 180.712C1171.35 181.075 1172.15 181.256 1173.18 181.256C1174.22 181.256 1175.03 181.075 1175.61 180.712C1176.21 180.328 1176.5 179.848 1176.5 179.272C1176.5 178.653 1176.21 178.163 1175.61 177.8C1175.03 177.437 1174.22 177.256 1173.18 177.256ZM1173.18 187.464C1174.35 187.464 1175.27 187.261 1175.93 186.856C1176.61 186.429 1176.95 185.875 1176.95 185.192C1176.95 184.509 1176.62 183.965 1175.96 183.56C1175.3 183.155 1174.37 182.952 1173.18 182.952C1172.02 182.952 1171.12 183.155 1170.46 183.56C1169.79 183.965 1169.46 184.509 1169.46 185.192C1169.46 185.875 1169.78 186.429 1170.42 186.856C1171.09 187.261 1172 187.464 1173.18 187.464Z" fill="#2D2B2B"/>
<path d="M842.04 124.52V134.12H838.32V128H815.28L815.24 134.12H811.52L811.56 124.52H812.92C814.68 124.413 815.92 123.027 816.64 120.36C817.36 117.667 817.8 113.88 817.96 109L818.24 100H837.92V124.52H842.04ZM821.48 109.36C821.347 113.307 821.027 116.573 820.52 119.16C820.04 121.747 819.253 123.533 818.16 124.52H833.96V103.48H821.68L821.48 109.36ZM858.108 106.6C860.162 106.6 862.002 107.053 863.628 107.96C865.255 108.867 866.522 110.133 867.428 111.76C868.362 113.387 868.828 115.267 868.828 117.4C868.828 119.533 868.362 121.427 867.428 123.08C866.522 124.707 865.255 125.973 863.628 126.88C862.002 127.787 860.162 128.24 858.108 128.24C856.588 128.24 855.188 127.947 853.908 127.36C852.655 126.773 851.588 125.92 850.708 124.8V135.76H846.868V106.8H850.548V110.16C851.402 108.987 852.482 108.107 853.788 107.52C855.095 106.907 856.535 106.6 858.108 106.6ZM857.788 124.88C859.148 124.88 860.362 124.573 861.428 123.96C862.522 123.32 863.375 122.44 863.988 121.32C864.628 120.173 864.948 118.867 864.948 117.4C864.948 115.933 864.628 114.64 863.988 113.52C863.375 112.373 862.522 111.493 861.428 110.88C860.362 110.267 859.148 109.96 857.788 109.96C856.455 109.96 855.242 110.28 854.148 110.92C853.082 111.533 852.228 112.4 851.588 113.52C850.975 114.64 850.668 115.933 850.668 117.4C850.668 118.867 850.975 120.173 851.588 121.32C852.202 122.44 853.055 123.32 854.148 123.96C855.242 124.573 856.455 124.88 857.788 124.88ZM883.488 128.24C881.381 128.24 879.488 127.773 877.808 126.84C876.128 125.907 874.808 124.627 873.848 123C872.914 121.347 872.448 119.48 872.448 117.4C872.448 115.32 872.914 113.467 873.848 111.84C874.808 110.187 876.128 108.907 877.808 108C879.488 107.067 881.381 106.6 883.488 106.6C885.594 106.6 887.474 107.067 889.128 108C890.808 108.907 892.114 110.187 893.048 111.84C894.008 113.467 894.488 115.32 894.488 117.4C894.488 119.48 894.008 121.347 893.048 123C892.114 124.627 890.808 125.907 889.128 126.84C887.474 127.773 885.594 128.24 883.488 128.24ZM883.488 124.88C884.848 124.88 886.061 124.573 887.128 123.96C888.221 123.32 889.074 122.44 889.688 121.32C890.301 120.173 890.608 118.867 890.608 117.4C890.608 115.933 890.301 114.64 889.688 113.52C889.074 112.373 888.221 111.493 887.128 110.88C886.061 110.267 884.848 109.96 883.488 109.96C882.128 109.96 880.901 110.267 879.808 110.88C878.741 111.493 877.888 112.373 877.248 113.52C876.634 114.64 876.328 115.933 876.328 117.4C876.328 118.867 876.634 120.173 877.248 121.32C877.888 122.44 878.741 123.32 879.808 123.96C880.901 124.573 882.128 124.88 883.488 124.88ZM910.833 107.52C912.806 107.52 914.566 107.96 916.113 108.84C917.659 109.72 918.859 110.947 919.713 112.52C920.593 114.067 921.033 115.84 921.033 117.84C921.033 119.893 920.566 121.72 919.633 123.32C918.726 124.893 917.433 126.12 915.753 127C914.099 127.88 912.206 128.32 910.073 128.32C906.473 128.32 903.686 127.093 901.713 124.64C899.766 122.16 898.793 118.68 898.793 114.2C898.793 109.853 899.686 106.453 901.473 104C903.259 101.52 905.993 99.88 909.673 99.08L919.353 96.92L919.913 100.44L910.993 102.36C908.219 102.973 906.153 104.013 904.793 105.48C903.433 106.947 902.659 109.053 902.473 111.8C903.379 110.44 904.553 109.387 905.993 108.64C907.433 107.893 909.046 107.52 910.833 107.52ZM910.153 125.12C911.513 125.12 912.713 124.813 913.753 124.2C914.819 123.587 915.646 122.747 916.233 121.68C916.819 120.587 917.113 119.347 917.113 117.96C917.113 115.853 916.473 114.16 915.193 112.88C913.913 111.6 912.233 110.96 910.153 110.96C908.073 110.96 906.379 111.6 905.073 112.88C903.793 114.16 903.153 115.853 903.153 117.96C903.153 119.347 903.446 120.587 904.033 121.68C904.646 122.747 905.486 123.587 906.553 124.2C907.619 124.813 908.819 125.12 910.153 125.12ZM926.517 106.8H930.357V122.24L943.357 106.8H946.837V128H942.997V112.56L930.037 128H926.517V106.8Z" fill="#2D2B2B"/>
<path d="M825.88 260.32C823.08 260.32 820.547 259.707 818.28 258.48C816.04 257.227 814.28 255.52 813 253.36C811.72 251.173 811.08 248.72 811.08 246C811.08 243.28 811.72 240.84 813 238.68C814.28 236.493 816.053 234.787 818.32 233.56C820.587 232.307 823.12 231.68 825.92 231.68C828.107 231.68 830.107 232.053 831.92 232.8C833.733 233.52 835.28 234.6 836.56 236.04L833.96 238.56C831.853 236.347 829.227 235.24 826.08 235.24C824 235.24 822.12 235.707 820.44 236.64C818.76 237.573 817.44 238.867 816.48 240.52C815.547 242.147 815.08 243.973 815.08 246C815.08 248.027 815.547 249.867 816.48 251.52C817.44 253.147 818.76 254.427 820.44 255.36C822.12 256.293 824 256.76 826.08 256.76C829.2 256.76 831.827 255.64 833.96 253.4L836.56 255.92C835.28 257.36 833.72 258.453 831.88 259.2C830.067 259.947 828.067 260.32 825.88 260.32ZM856.645 242.16H848.885V260H845.045V242.16H837.285V238.8H856.645V242.16ZM871.812 238.6C873.865 238.6 875.705 239.053 877.332 239.96C878.958 240.867 880.225 242.133 881.132 243.76C882.065 245.387 882.532 247.267 882.532 249.4C882.532 251.533 882.065 253.427 881.132 255.08C880.225 256.707 878.958 257.973 877.332 258.88C875.705 259.787 873.865 260.24 871.812 260.24C870.292 260.24 868.892 259.947 867.612 259.36C866.358 258.773 865.292 257.92 864.412 256.8V267.76H860.572V238.8H864.252V242.16C865.105 240.987 866.185 240.107 867.492 239.52C868.798 238.907 870.238 238.6 871.812 238.6ZM871.492 256.88C872.852 256.88 874.065 256.573 875.132 255.96C876.225 255.32 877.078 254.44 877.692 253.32C878.332 252.173 878.652 250.867 878.652 249.4C878.652 247.933 878.332 246.64 877.692 245.52C877.078 244.373 876.225 243.493 875.132 242.88C874.065 242.267 872.852 241.96 871.492 241.96C870.158 241.96 868.945 242.28 867.852 242.92C866.785 243.533 865.932 244.4 865.292 245.52C864.678 246.64 864.372 247.933 864.372 249.4C864.372 250.867 864.678 252.173 865.292 253.32C865.905 254.44 866.758 255.32 867.852 255.96C868.945 256.573 870.158 256.88 871.492 256.88ZM907.271 249.52C907.271 249.813 907.244 250.2 907.191 250.68H889.991C890.231 252.547 891.044 254.053 892.431 255.2C893.844 256.32 895.591 256.88 897.671 256.88C900.204 256.88 902.244 256.027 903.791 254.32L905.911 256.8C904.951 257.92 903.751 258.773 902.311 259.36C900.897 259.947 899.311 260.24 897.551 260.24C895.311 260.24 893.324 259.787 891.591 258.88C889.857 257.947 888.511 256.653 887.551 255C886.617 253.347 886.151 251.48 886.151 249.4C886.151 247.347 886.604 245.493 887.511 243.84C888.444 242.187 889.711 240.907 891.311 240C892.937 239.067 894.764 238.6 896.791 238.6C898.817 238.6 900.617 239.067 902.191 240C903.791 240.907 905.031 242.187 905.911 243.84C906.817 245.493 907.271 247.387 907.271 249.52ZM896.791 241.84C894.951 241.84 893.404 242.4 892.151 243.52C890.924 244.64 890.204 246.107 889.991 247.92H903.591C903.377 246.133 902.644 244.68 901.391 243.56C900.164 242.413 898.631 241.84 896.791 241.84ZM931.076 238.8V260H927.236V242.16H918.116L917.876 246.88C917.743 249.733 917.49 252.12 917.116 254.04C916.743 255.933 916.13 257.453 915.276 258.6C914.423 259.747 913.236 260.32 911.716 260.32C911.023 260.32 910.236 260.2 909.356 259.96L909.596 256.72C909.943 256.8 910.263 256.84 910.556 256.84C911.623 256.84 912.423 256.373 912.956 255.44C913.49 254.507 913.836 253.4 913.996 252.12C914.156 250.84 914.303 249.013 914.436 246.64L914.796 238.8H931.076ZM946.741 251.04H942.341V260H938.501V238.8H942.341V247.76H946.821L953.701 238.8H957.821L949.781 249L958.381 260H953.861L946.741 251.04ZM962.408 238.8H966.248V254.24L979.247 238.8H982.728V260H978.887V244.56L965.928 260H962.408V238.8Z" fill="#2D2B2B"/>
<path d="M836.28 350L823.84 373.08C822.853 374.92 821.693 376.293 820.36 377.2C819.027 378.107 817.573 378.56 816 378.56C814.773 378.56 813.52 378.28 812.24 377.72L813.28 374.52C814.267 374.867 815.147 375.04 815.92 375.04C817.68 375.04 819.133 374.107 820.28 372.24L820.92 371.24L809.64 350H813.92L823 367.76L832.32 350H836.28ZM850.21 356.6C852.263 356.6 854.103 357.053 855.73 357.96C857.357 358.867 858.623 360.133 859.53 361.76C860.463 363.387 860.93 365.267 860.93 367.4C860.93 369.533 860.463 371.427 859.53 373.08C858.623 374.707 857.357 375.973 855.73 376.88C854.103 377.787 852.263 378.24 850.21 378.24C848.69 378.24 847.29 377.947 846.01 377.36C844.757 376.773 843.69 375.92 842.81 374.8V385.76H838.97V356.8H842.65V360.16C843.503 358.987 844.583 358.107 845.89 357.52C847.197 356.907 848.637 356.6 850.21 356.6ZM849.89 374.88C851.25 374.88 852.463 374.573 853.53 373.96C854.623 373.32 855.477 372.44 856.09 371.32C856.73 370.173 857.05 368.867 857.05 367.4C857.05 365.933 856.73 364.64 856.09 363.52C855.477 362.373 854.623 361.493 853.53 360.88C852.463 360.267 851.25 359.96 849.89 359.96C848.557 359.96 847.343 360.28 846.25 360.92C845.183 361.533 844.33 362.4 843.69 363.52C843.077 364.64 842.77 365.933 842.77 367.4C842.77 368.867 843.077 370.173 843.69 371.32C844.303 372.44 845.157 373.32 846.25 373.96C847.343 374.573 848.557 374.88 849.89 374.88ZM873.874 356.6C876.807 356.6 879.047 357.32 880.594 358.76C882.167 360.2 882.954 362.347 882.954 365.2V378H879.314V375.2C878.674 376.187 877.754 376.947 876.554 377.48C875.38 377.987 873.98 378.24 872.354 378.24C869.98 378.24 868.074 377.667 866.634 376.52C865.22 375.373 864.514 373.867 864.514 372C864.514 370.133 865.194 368.64 866.554 367.52C867.914 366.373 870.074 365.8 873.034 365.8H879.114V365.04C879.114 363.387 878.634 362.12 877.674 361.24C876.714 360.36 875.3 359.92 873.434 359.92C872.18 359.92 870.954 360.133 869.754 360.56C868.554 360.96 867.54 361.507 866.714 362.2L865.114 359.32C866.207 358.44 867.514 357.773 869.034 357.32C870.554 356.84 872.167 356.6 873.874 356.6ZM872.994 375.28C874.46 375.28 875.727 374.96 876.794 374.32C877.86 373.653 878.634 372.72 879.114 371.52V368.56H873.194C869.94 368.56 868.314 369.653 868.314 371.84C868.314 372.907 868.727 373.747 869.554 374.36C870.38 374.973 871.527 375.28 872.994 375.28ZM904.308 367C907.055 367.693 908.428 369.413 908.428 372.16C908.428 374.027 907.722 375.467 906.308 376.48C904.922 377.493 902.842 378 900.068 378H889.868V356.8H899.708C902.215 356.8 904.175 357.28 905.588 358.24C907.002 359.173 907.708 360.507 907.708 362.24C907.708 363.36 907.402 364.333 906.788 365.16C906.202 365.96 905.375 366.573 904.308 367ZM893.628 365.92H899.388C900.855 365.92 901.962 365.653 902.708 365.12C903.482 364.587 903.868 363.813 903.868 362.8C903.868 360.773 902.375 359.76 899.388 359.76H893.628V365.92ZM899.788 375.04C901.388 375.04 902.588 374.787 903.388 374.28C904.188 373.773 904.588 372.987 904.588 371.92C904.588 370.827 904.215 370.013 903.468 369.48C902.748 368.947 901.602 368.68 900.028 368.68H893.628V375.04H899.788ZM914.439 356.8H918.279V365.8H930.359V356.8H934.199V378H930.359V369.12H918.279V378H914.439V356.8ZM960.825 367.52C960.825 367.813 960.799 368.2 960.745 368.68H943.545C943.785 370.547 944.599 372.053 945.985 373.2C947.399 374.32 949.145 374.88 951.225 374.88C953.759 374.88 955.799 374.027 957.345 372.32L959.465 374.8C958.505 375.92 957.305 376.773 955.865 377.36C954.452 377.947 952.865 378.24 951.105 378.24C948.865 378.24 946.879 377.787 945.145 376.88C943.412 375.947 942.065 374.653 941.105 373C940.172 371.347 939.705 369.48 939.705 367.4C939.705 365.347 940.159 363.493 941.065 361.84C941.999 360.187 943.265 358.907 944.865 358C946.492 357.067 948.319 356.6 950.345 356.6C952.372 356.6 954.172 357.067 955.745 358C957.345 358.907 958.585 360.187 959.465 361.84C960.372 363.493 960.825 365.387 960.825 367.52ZM950.345 359.84C948.505 359.84 946.959 360.4 945.705 361.52C944.479 362.64 943.759 364.107 943.545 365.92H957.145C956.932 364.133 956.199 362.68 954.945 361.56C953.719 360.413 952.185 359.84 950.345 359.84ZM966.783 356.8H970.623V365.8H982.703V356.8H986.543V378H982.703V369.12H970.623V378H966.783V356.8ZM994.009 356.8H997.849V372.24L1010.85 356.8H1014.33V378H1010.49V362.56L997.529 378H994.009V356.8ZM1038.78 356.8V378H1035.34V371.28H1029.18H1028.74L1024.1 378H1019.98L1025.14 370.76C1023.54 370.28 1022.32 369.493 1021.46 368.4C1020.61 367.28 1020.18 365.893 1020.18 364.24C1020.18 361.813 1021.01 359.973 1022.66 358.72C1024.32 357.44 1026.6 356.8 1029.5 356.8H1038.78ZM1024.1 364.36C1024.1 365.773 1024.54 366.827 1025.42 367.52C1026.33 368.187 1027.68 368.52 1029.46 368.52H1035.34V360.16H1029.62C1025.94 360.16 1024.1 361.56 1024.1 364.36Z" fill="#2D2B2B"/>
<path d="M825.96 518.32C823.133 518.32 820.587 517.707 818.32 516.48C816.053 515.227 814.267 513.507 812.96 511.32C811.68 509.133 811.04 506.693 811.04 504C811.04 501.307 811.68 498.867 812.96 496.68C814.267 494.493 816.053 492.787 818.32 491.56C820.587 490.307 823.133 489.68 825.96 489.68C828.76 489.68 831.293 490.307 833.56 491.56C835.827 492.787 837.6 494.493 838.88 496.68C840.16 498.84 840.8 501.28 840.8 504C840.8 506.72 840.16 509.173 838.88 511.36C837.6 513.52 835.827 515.227 833.56 516.48C831.293 517.707 828.76 518.32 825.96 518.32ZM825.96 514.76C828.013 514.76 829.853 514.293 831.48 513.36C833.133 512.427 834.427 511.147 835.36 509.52C836.32 507.867 836.8 506.027 836.8 504C836.8 501.973 836.32 500.147 835.36 498.52C834.427 496.867 833.133 495.573 831.48 494.64C829.853 493.707 828.013 493.24 825.96 493.24C823.907 493.24 822.04 493.707 820.36 494.64C818.707 495.573 817.4 496.867 816.44 498.52C815.507 500.147 815.04 501.973 815.04 504C815.04 506.027 815.507 507.867 816.44 509.52C817.4 511.147 818.707 512.427 820.36 513.36C822.04 514.293 823.907 514.76 825.96 514.76ZM857.426 497.52C859.4 497.52 861.16 497.96 862.706 498.84C864.253 499.72 865.453 500.947 866.306 502.52C867.186 504.067 867.626 505.84 867.626 507.84C867.626 509.893 867.16 511.72 866.226 513.32C865.32 514.893 864.026 516.12 862.346 517C860.693 517.88 858.8 518.32 856.666 518.32C853.066 518.32 850.28 517.093 848.306 514.64C846.36 512.16 845.386 508.68 845.386 504.2C845.386 499.853 846.28 496.453 848.066 494C849.853 491.52 852.586 489.88 856.266 489.08L865.946 486.92L866.506 490.44L857.586 492.36C854.813 492.973 852.746 494.013 851.386 495.48C850.026 496.947 849.253 499.053 849.066 501.8C849.973 500.44 851.146 499.387 852.586 498.64C854.026 497.893 855.64 497.52 857.426 497.52ZM856.746 515.12C858.106 515.12 859.306 514.813 860.346 514.2C861.413 513.587 862.24 512.747 862.826 511.68C863.413 510.587 863.706 509.347 863.706 507.96C863.706 505.853 863.066 504.16 861.786 502.88C860.506 501.6 858.826 500.96 856.746 500.96C854.666 500.96 852.973 501.6 851.666 502.88C850.386 504.16 849.746 505.853 849.746 507.96C849.746 509.347 850.04 510.587 850.626 511.68C851.24 512.747 852.08 513.587 853.146 514.2C854.213 514.813 855.413 515.12 856.746 515.12ZM882.191 518.24C880.084 518.24 878.191 517.773 876.511 516.84C874.831 515.907 873.511 514.627 872.551 513C871.617 511.347 871.151 509.48 871.151 507.4C871.151 505.32 871.617 503.467 872.551 501.84C873.511 500.187 874.831 498.907 876.511 498C878.191 497.067 880.084 496.6 882.191 496.6C884.297 496.6 886.177 497.067 887.831 498C889.511 498.907 890.817 500.187 891.751 501.84C892.711 503.467 893.191 505.32 893.191 507.4C893.191 509.48 892.711 511.347 891.751 513C890.817 514.627 889.511 515.907 887.831 516.84C886.177 517.773 884.297 518.24 882.191 518.24ZM882.191 514.88C883.551 514.88 884.764 514.573 885.831 513.96C886.924 513.32 887.777 512.44 888.391 511.32C889.004 510.173 889.311 508.867 889.311 507.4C889.311 505.933 889.004 504.64 888.391 503.52C887.777 502.373 886.924 501.493 885.831 500.88C884.764 500.267 883.551 499.96 882.191 499.96C880.831 499.96 879.604 500.267 878.511 500.88C877.444 501.493 876.591 502.373 875.951 503.52C875.337 504.64 875.031 505.933 875.031 507.4C875.031 508.867 875.337 510.173 875.951 511.32C876.591 512.44 877.444 513.32 878.511 513.96C879.604 514.573 880.831 514.88 882.191 514.88ZM909.981 506.96C911.395 507.333 912.488 507.933 913.261 508.76C914.035 509.587 914.421 510.613 914.421 511.84C914.421 513.093 913.995 514.213 913.141 515.2C912.288 516.16 911.101 516.92 909.581 517.48C908.088 518.013 906.408 518.28 904.541 518.28C902.968 518.28 901.421 518.08 899.901 517.68C898.408 517.253 897.075 516.653 895.901 515.88L897.061 512.96C898.075 513.6 899.235 514.107 900.541 514.48C901.848 514.827 903.168 515 904.501 515C906.315 515 907.755 514.693 908.821 514.08C909.915 513.44 910.461 512.587 910.461 511.52C910.461 510.533 910.021 509.773 909.141 509.24C908.288 508.707 907.075 508.44 905.501 508.44H901.621V505.68H905.221C906.661 505.68 907.795 505.427 908.621 504.92C909.448 504.413 909.861 503.72 909.861 502.84C909.861 501.88 909.368 501.133 908.381 500.6C907.421 500.067 906.115 499.8 904.461 499.8C902.355 499.8 900.128 500.347 897.781 501.44L896.741 498.48C899.328 497.173 902.035 496.52 904.861 496.52C906.568 496.52 908.101 496.76 909.461 497.24C910.821 497.72 911.888 498.4 912.661 499.28C913.435 500.16 913.821 501.16 913.821 502.28C913.821 503.32 913.475 504.253 912.781 505.08C912.088 505.907 911.155 506.533 909.981 506.96ZM920.259 496.8H924.099V505.8H936.179V496.8H940.019V518H936.179V509.12H924.099V518H920.259V496.8ZM955.046 496.6C957.979 496.6 960.219 497.32 961.766 498.76C963.339 500.2 964.126 502.347 964.126 505.2V518H960.486V515.2C959.846 516.187 958.926 516.947 957.726 517.48C956.552 517.987 955.152 518.24 953.526 518.24C951.152 518.24 949.246 517.667 947.806 516.52C946.392 515.373 945.686 513.867 945.686 512C945.686 510.133 946.366 508.64 947.726 507.52C949.086 506.373 951.246 505.8 954.206 505.8H960.286V505.04C960.286 503.387 959.806 502.12 958.846 501.24C957.886 500.36 956.472 499.92 954.606 499.92C953.352 499.92 952.126 500.133 950.926 500.56C949.726 500.96 948.712 501.507 947.886 502.2L946.286 499.32C947.379 498.44 948.686 497.773 950.206 497.32C951.726 496.84 953.339 496.6 955.046 496.6ZM954.166 515.28C955.632 515.28 956.899 514.96 957.966 514.32C959.032 513.653 959.806 512.72 960.286 511.52V508.56H954.366C951.112 508.56 949.486 509.653 949.486 511.84C949.486 512.907 949.899 513.747 950.726 514.36C951.552 514.973 952.699 515.28 954.166 515.28ZM987.96 496.8V518H984.12V509.44C981.827 510.507 979.547 511.04 977.28 511.04C974.64 511.04 972.6 510.427 971.16 509.2C969.72 507.973 969 506.133 969 503.68V496.8H972.84V503.44C972.84 504.907 973.294 506.013 974.2 506.76C975.134 507.507 976.427 507.88 978.08 507.88C979.947 507.88 981.96 507.413 984.12 506.48V496.8H987.96ZM1014.58 507.52C1014.58 507.813 1014.55 508.2 1014.5 508.68H997.295C997.535 510.547 998.349 512.053 999.735 513.2C1001.15 514.32 1002.9 514.88 1004.98 514.88C1007.51 514.88 1009.55 514.027 1011.1 512.32L1013.22 514.8C1012.26 515.92 1011.06 516.773 1009.62 517.36C1008.2 517.947 1006.62 518.24 1004.86 518.24C1002.62 518.24 1000.63 517.787 998.895 516.88C997.162 515.947 995.815 514.653 994.855 513C993.922 511.347 993.455 509.48 993.455 507.4C993.455 505.347 993.909 503.493 994.815 501.84C995.749 500.187 997.015 498.907 998.615 498C1000.24 497.067 1002.07 496.6 1004.1 496.6C1006.12 496.6 1007.92 497.067 1009.5 498C1011.1 498.907 1012.34 500.187 1013.22 501.84C1014.12 503.493 1014.58 505.387 1014.58 507.52ZM1004.1 499.84C1002.26 499.84 1000.71 500.4 999.455 501.52C998.229 502.64 997.509 504.107 997.295 505.92H1010.9C1010.68 504.133 1009.95 502.68 1008.7 501.56C1007.47 500.413 1005.94 499.84 1004.1 499.84ZM1020.53 496.8H1024.37V505.8H1036.45V496.8H1040.29V518H1036.45V509.12H1024.37V518H1020.53V496.8ZM1047.76 496.8H1051.6V512.24L1064.6 496.8H1068.08V518H1064.24V502.56L1051.28 518H1047.76V496.8ZM1092.53 496.8V518H1089.09V511.28H1082.93H1082.49L1077.85 518H1073.73L1078.89 510.76C1077.29 510.28 1076.07 509.493 1075.21 508.4C1074.36 507.28 1073.93 505.893 1073.93 504.24C1073.93 501.813 1074.76 499.973 1076.41 498.72C1078.07 497.44 1080.35 496.8 1083.25 496.8H1092.53ZM1077.85 504.36C1077.85 505.773 1078.29 506.827 1079.17 507.52C1080.08 508.187 1081.43 508.52 1083.21 508.52H1089.09V500.16H1083.37C1079.69 500.16 1077.85 501.56 1077.85 504.36Z" fill="#2D2B2B"/>
<path d="M830.04 304.2H816.88L821.28 310.96H818.6L813.24 303.12L818.6 295.2H821.28L816.88 302H830.04V304.2Z" fill="black"/>
<path d="M913.84 302.48L907.16 298.12V311.48H904.8V298.08L898.16 302.48V299.92L905.96 294.52L913.84 299.92V302.48Z" fill="black"/>
<path d="M998.76 303.08L993.4 311H990.72L995.16 304.2H981.96V302H995.16L990.72 295.24H993.4L998.76 303.08Z" fill="black"/>
<path d="M1084.32 303.68V306.28L1076.52 311.68L1068.64 306.28V303.68L1075.32 308.08V294.72H1077.68V308.12L1084.32 303.68Z" fill="black"/>
<path d="M1174.48 303.12L1169.08 310.96H1166.4L1170.88 304.2H1154.6L1159.08 310.96H1156.4L1151 303.12L1156.4 295.2H1159.08L1154.6 302H1170.88L1166.4 295.2H1169.08L1174.48 303.12Z" fill="black"/>
<path d="M994.24 421.4C995.68 421.4 996.987 421.733 998.16 422.4C999.36 423.04 1000.29 423.933 1000.96 425.08C1001.63 426.227 1001.96 427.52 1001.96 428.96C1001.96 430.4 1001.61 431.707 1000.92 432.88C1000.25 434.027 999.333 434.933 998.16 435.6C996.987 436.267 995.68 436.6 994.24 436.6C992.08 436.6 990.347 436.12 989.04 435.16C987.733 434.173 986.533 432.8 985.44 431.04C984.32 432.8 983.107 434.173 981.8 435.16C980.493 436.12 978.76 436.6 976.6 436.6C975.133 436.6 973.813 436.267 972.64 435.6C971.467 434.933 970.533 434.027 969.84 432.88C969.173 431.707 968.84 430.413 968.84 429C968.84 427.56 969.173 426.267 969.84 425.12C970.533 423.947 971.467 423.04 972.64 422.4C973.813 421.733 975.133 421.4 976.6 421.4C978.76 421.4 980.493 421.893 981.8 422.88C983.107 423.84 984.32 425.2 985.44 426.96C986.533 425.2 987.733 423.84 989.04 422.88C990.347 421.893 992.08 421.4 994.24 421.4ZM976.76 434.36C977.987 434.36 979.04 434.133 979.92 433.68C980.827 433.2 981.587 432.587 982.2 431.84C982.84 431.093 983.507 430.147 984.2 429C983.507 427.853 982.84 426.907 982.2 426.16C981.587 425.413 980.827 424.813 979.92 424.36C979.04 423.88 977.987 423.64 976.76 423.64C975.16 423.64 973.827 424.16 972.76 425.2C971.72 426.213 971.2 427.48 971.2 429C971.2 430.52 971.72 431.8 972.76 432.84C973.827 433.853 975.16 434.36 976.76 434.36ZM994.08 434.36C995.68 434.36 997 433.853 998.04 432.84C999.08 431.8 999.6 430.507 999.6 428.96C999.6 427.44 999.08 426.173 998.04 425.16C997 424.147 995.68 423.64 994.08 423.64C992.853 423.64 991.787 423.88 990.88 424.36C990 424.813 989.24 425.413 988.6 426.16C987.987 426.907 987.333 427.853 986.64 429C987.333 430.147 987.987 431.093 988.6 431.84C989.24 432.587 990 433.2 990.88 433.68C991.787 434.133 992.853 434.36 994.08 434.36Z" fill="#2D2B2B"/>
<path d="M1079.56 427.56C1078.65 427.56 1077.87 427.373 1077.2 427C1076.53 426.6 1075.75 426.027 1074.84 425.28C1074.12 424.667 1073.52 424.227 1073.04 423.96C1072.59 423.667 1072.08 423.52 1071.52 423.52C1070.59 423.52 1069.84 423.867 1069.28 424.56C1068.75 425.227 1068.45 426.147 1068.4 427.32H1066.48C1066.53 425.373 1067 423.88 1067.88 422.84C1068.79 421.8 1069.97 421.28 1071.44 421.28C1072.35 421.28 1073.13 421.48 1073.8 421.88C1074.47 422.253 1075.25 422.813 1076.16 423.56C1076.85 424.173 1077.44 424.627 1077.92 424.92C1078.4 425.213 1078.92 425.36 1079.48 425.36C1080.41 425.36 1081.15 425.013 1081.68 424.32C1082.24 423.627 1082.55 422.68 1082.6 421.48H1084.52C1084.47 423.453 1083.99 424.96 1083.08 426C1082.2 427.04 1081.03 427.56 1079.56 427.56ZM1079.56 436.72C1078.65 436.72 1077.87 436.533 1077.2 436.16C1076.53 435.76 1075.75 435.187 1074.84 434.44C1074.12 433.827 1073.52 433.387 1073.04 433.12C1072.59 432.827 1072.08 432.68 1071.52 432.68C1070.59 432.68 1069.84 433.027 1069.28 433.72C1068.75 434.413 1068.45 435.347 1068.4 436.52H1066.48C1066.53 434.547 1067 433.04 1067.88 432C1068.79 430.96 1069.97 430.44 1071.44 430.44C1072.35 430.44 1073.13 430.64 1073.8 431.04C1074.47 431.413 1075.25 431.973 1076.16 432.72C1076.85 433.333 1077.44 433.787 1077.92 434.08C1078.4 434.373 1078.92 434.52 1079.48 434.52C1080.41 434.52 1081.15 434.173 1081.68 433.48C1082.24 432.787 1082.55 431.853 1082.6 430.68H1084.52C1084.47 432.627 1083.99 434.12 1083.08 435.16C1082.2 436.2 1081.03 436.72 1079.56 436.72Z" fill="#2D2B2B"/>
<path d="M1166.6 425.56L1162.84 432.44H1172.2V434.8H1161.52L1158.8 439.72H1156.36L1159.08 434.8H1154.8V432.44H1160.4L1164.16 425.56H1154.8V423.2H1165.48L1168.2 418.28H1170.64L1167.92 423.2H1172.2V425.56H1166.6Z" fill="#2D2B2B"/>
<path d="M913.2 422.64V425.16L895.8 432V429.48L910.2 423.88L895.8 418.32V415.8L913.2 422.64ZM895.8 436.64H913.2V439H895.8V436.64Z" fill="#2D2B2B"/>
<path d="M832.2 418.32L817.8 423.88L832.2 429.48V432L814.8 425.16V422.64L832.2 415.8V418.32ZM814.8 436.64H832.2V439H814.8V436.64Z" fill="#2D2B2B"/>
<path d="M834.88 571H812.064L822.304 548.6H824.64L834.88 571ZM815.424 568.952H831.456L823.456 551.032L815.424 568.952Z" fill="#2D2B2B"/>
<path d="M896.648 545.6H915.368V574.208H913.032V547.744H899.016V574.208H896.648V545.6Z" fill="#2D2B2B"/>
<path d="M993.808 572.16V574.208H975.44V572.576L986.288 559.872L975.824 547.232V545.6H993.616V547.648H979.024L988.496 559.072V560.704L978.608 572.16H993.808Z" fill="#2D2B2B"/>
<path d="M1084.97 557.232L1064.52 567.456V547.008L1084.97 557.232ZM1066.3 564.48L1081.03 557.232L1066.3 549.984V564.48Z" fill="#2D2B2B"/>
<path d="M1176.62 547.056L1166.4 567.504L1156.18 547.056H1176.62Z" fill="#2D2B2B"/>
<rect x="-8" y="721" width="114" height="404" transform="rotate(-90 -8 721)" fill="#FBFBFB"/>
<rect x="-4" y="211" width="44" height="368" fill="#FBFBFB"/>
</g>
<defs>
<clipPath id="clip0_682_1245">
<rect width="1280" height="719" fill="white"/>
</clipPath>
</defs>
</svg>
