<svg width="1280" height="719" viewBox="0 0 1280 719" fill="none" xmlns="http://www.w3.org/2000/svg">
<g clip-path="url(#clip0_682_1245)">
<rect width="1280" height="719" fill="#FBFBFB"/>
<path d="M187 506L341.5 321" stroke="#6B6B6B" stroke-width="2"/>
<path d="M340 322.5L680 322.5" stroke="#898989" stroke-width="2"/>
<circle cx="191" cy="492" r="227" stroke="#2D2B2B" stroke-width="4"/>
<path d="M41 78V606H780H1235.5" stroke="#898989" stroke-width="2" stroke-dasharray="10 10"/>
<circle cx="186" cy="508" r="6" fill="#2D2B2B"/>
<path d="M143.672 523.384C140.376 523.384 137.544 522.792 135.176 521.608C132.808 520.424 131 518.776 129.752 516.664C128.504 514.52 127.88 512.04 127.88 509.224C127.88 505.48 128.728 502.072 130.424 499C132.12 495.928 134.504 493.496 137.576 491.704C140.68 489.912 144.248 489.016 148.28 489.016C151.576 489.016 154.408 489.608 156.776 490.792C159.176 491.976 161 493.64 162.248 495.784C163.496 497.896 164.12 500.36 164.12 503.176C164.12 506.92 163.272 510.328 161.576 513.4C159.88 516.472 157.48 518.904 154.376 520.696C151.272 522.488 147.704 523.384 143.672 523.384ZM144.104 519.112C147.112 519.112 149.768 518.408 152.072 517C154.376 515.592 156.152 513.704 157.4 511.336C158.648 508.936 159.272 506.312 159.272 503.464C159.272 500.36 158.28 497.896 156.296 496.072C154.344 494.216 151.544 493.288 147.896 493.288C144.888 493.288 142.232 493.992 139.928 495.4C137.624 496.808 135.832 498.712 134.552 501.112C133.304 503.512 132.68 506.12 132.68 508.936C132.68 512.04 133.672 514.52 135.656 516.376C137.64 518.2 140.456 519.112 144.104 519.112Z" fill="#2D2B2B"/>
<path d="M421 607L419 84" stroke="#898989" stroke-width="2" stroke-dasharray="10 10"/>
<path d="M40.9994 227.499L419 227" stroke="#6B6B6B" stroke-width="2"/>
<path d="M421.041 226.968L393.005 231.95L395.159 226.981L393 222.014L421.041 226.968Z" fill="#7B7B7B"/>
<path d="M421.041 226.968L393.005 231.95L395.159 226.981L393 222.014L421.041 226.968Z" fill="#7B7B7B"/>
<rect x="-8" y="721" width="114" height="404" transform="rotate(-90 -8 721)" fill="#FBFBFB"/>
<rect x="-4" y="211" width="44" height="368" fill="#FBFBFB"/>
</g>
<defs>
<clipPath id="clip0_682_1245">
<rect width="1280" height="719" fill="white"/>
</clipPath>
</defs>
</svg>
